<?xml version="1.0" standalone="no"?>
<!DOCTYPE svg PUBLIC "-//W3C//DTD SVG 20010904//EN"
 "http://www.w3.org/TR/2001/REC-SVG-20010904/DTD/svg10.dtd">
<svg version="1.0" xmlns="http://www.w3.org/2000/svg"
 width="650.000000pt" height="650.000000pt" viewBox="0 0 650.000000 650.000000"
 preserveAspectRatio="xMidYMid meet">
<metadata>
Created by potrace 1.14, written by Peter Selinger 2001-2017
</metadata>
<g transform="translate(0.000000,650.000000) scale(0.100000,-0.100000)"
fill="#000000" stroke="none">
<path d="M3240 5980 c-18 -12 39 -12 85 0 26 7 24 8 -20 9 -27 0 -57 -4 -65
-9z"/>
<path d="M3408 5983 c7 -3 16 -2 19 1 4 3 -2 6 -13 5 -11 0 -14 -3 -6 -6z"/>
<path d="M3466 5978 c-6 -4 20 -8 58 -8 52 0 75 -4 89 -17 11 -10 17 -13 14
-6 -5 7 1 13 15 16 16 3 15 4 -4 2 -16 -1 -28 2 -28 6 0 10 -129 16 -144 7z"/>
<path d="M3165 5969 c18 -5 33 -5 39 1 7 7 -4 10 -29 9 -40 -1 -40 -1 -10 -10z"/>
<path d="M3108 5963 c7 -3 16 -2 19 1 4 3 -2 6 -13 5 -11 0 -14 -3 -6 -6z"/>
<path d="M3416 5955 c-6 -17 -56 -21 -56 -5 0 13 -27 13 -35 -1 -4 -6 -1 -9 6
-8 8 1 21 -1 29 -4 29 -11 94 -26 98 -22 11 10 -12 25 -31 20 -20 -6 -20 -5 3
14 19 16 21 21 9 21 -9 0 -19 -7 -23 -15z"/>
<path d="M3058 5953 c7 -3 16 -2 19 1 4 3 -2 6 -13 5 -11 0 -14 -3 -6 -6z"/>
<path d="M3698 5953 c6 -3 12 -9 12 -15 0 -5 7 -7 16 -4 10 4 30 -4 50 -19 33
-25 61 -34 49 -15 -8 12 5 13 23 1 10 -6 8 -10 -10 -15 l-23 -7 23 -9 c12 -5
22 -13 22 -19 0 -5 11 -11 25 -13 14 -3 25 -2 25 2 0 16 81 4 98 -15 10 -11
11 -14 2 -8 -8 6 -30 13 -49 15 -27 2 -35 -1 -37 -15 -2 -14 2 -17 19 -12 20
5 20 5 4 -5 -14 -9 -26 -8 -50 3 -17 9 -35 13 -40 10 -5 -3 -13 0 -17 6 -4 7
-13 13 -21 14 -8 2 -20 7 -28 11 -10 7 -12 6 -6 -4 6 -10 4 -12 -8 -7 -12 5
-17 1 -17 -13 0 -10 -5 -22 -12 -26 -8 -5 -9 0 -5 15 5 20 3 21 -29 15 -22 -4
-34 -2 -34 5 0 6 -4 11 -10 11 -18 0 -11 -18 10 -25 11 -3 20 -13 20 -21 0
-13 12 -18 33 -15 4 0 7 -6 7 -14 0 -7 8 -19 18 -24 12 -7 6 -9 -23 -4 -22 3
-42 10 -44 16 -2 5 -7 4 -11 -3 -15 -24 -40 -2 -40 33 0 40 -20 61 -50 52 -26
-8 -20 -31 7 -27 16 2 22 -4 27 -29 3 -17 6 -35 6 -40 0 -14 -24 -6 -32 11 -5
12 -7 12 -7 -2 -1 -21 -12 -23 -29 -6 -9 9 -12 8 -12 -5 0 -28 -17 -19 -23 12
-4 19 -13 30 -29 33 -13 3 -32 9 -43 13 l-20 8 20 -17 c11 -10 14 -15 8 -11
-7 3 -13 2 -13 -4 0 -5 15 -11 33 -13 l32 -4 -29 -8 c-24 -8 -31 -5 -51 20
-13 16 -26 26 -30 23 -3 -4 7 -21 23 -37 17 -17 33 -28 36 -25 3 4 6 1 6 -5 0
-19 -16 -14 -48 13 -16 13 -32 21 -36 17 -4 -4 -5 5 -1 20 5 21 3 29 -9 34
-20 8 -21 24 -1 24 8 0 15 -5 15 -11 0 -7 19 -8 55 -4 30 3 55 2 55 -3 0 -5
13 -7 30 -4 16 2 28 8 25 12 -3 5 -1 11 5 15 12 7 4 25 -11 25 -6 0 -7 -6 -3
-12 5 -9 2 -9 -9 1 -15 12 -17 11 -17 -5 0 -15 -2 -16 -9 -5 -8 12 -16 13 -45
4 -20 -6 -36 -7 -36 -2 0 5 4 9 10 9 5 0 7 7 4 15 -6 14 -8 13 -19 -2 -13 -18
-30 -12 -30 10 0 5 -6 12 -14 15 -10 3 -11 0 -5 -9 5 -9 -1 -8 -16 4 -41 29
-51 31 -68 13 -10 -10 -12 -16 -4 -16 7 0 12 5 12 10 0 15 27 12 33 -4 4 -11
1 -13 -10 -9 -12 5 -14 1 -8 -18 6 -20 5 -22 -6 -11 -17 16 -37 16 -21 0 19
-19 14 -33 -6 -15 -10 10 -24 17 -30 17 -13 0 -16 26 -4 33 4 2 2 2 -5 1 -18
-5 -28 17 -12 27 15 10 4 9 -59 -6 -29 -7 -31 -9 -15 -20 10 -8 14 -17 10 -21
-4 -5 -12 -2 -17 6 -6 8 -10 10 -10 4 0 -7 -7 -14 -15 -18 -13 -4 -14 -2 -5
14 9 17 8 20 -13 20 -26 0 -88 -27 -99 -44 -4 -6 -10 -7 -14 -3 -4 4 -14 1
-23 -7 -9 -8 -25 -16 -36 -18 -11 -2 -21 -12 -23 -22 -3 -15 0 -18 18 -13 18
4 20 3 11 -6 -9 -9 -16 -9 -29 0 -17 10 -57 9 -92 -4 -31 -11 -78 -8 -91 6
-11 12 -10 14 8 9 11 -3 27 -2 34 3 12 8 11 11 -1 20 -12 8 -8 9 15 5 17 -4
25 -3 18 1 -9 6 -9 12 0 24 7 9 16 16 20 17 5 0 12 4 15 8 4 4 -9 4 -28 -1
-19 -4 -40 -7 -47 -8 -7 0 -10 -4 -7 -9 3 -4 -4 -8 -15 -8 -11 0 -33 -11 -49
-25 -17 -14 -32 -25 -36 -25 -3 0 -32 -17 -65 -38 -45 -28 -58 -41 -49 -50 8
-8 6 -10 -9 -6 -12 3 -29 -4 -46 -22 -26 -26 -37 -52 -17 -39 5 3 17 2 26 -3
27 -15 0 -22 -29 -7 -30 16 -53 0 -37 -25 6 -8 10 -11 10 -6 0 5 8 2 17 -5 15
-12 16 -12 10 4 -5 15 -4 16 13 7 10 -5 27 -7 37 -4 17 5 17 5 0 -6 -9 -6 -22
-8 -27 -5 -14 9 -12 -9 3 -24 7 -8 0 -7 -20 3 -30 15 -37 14 -34 -6 0 -4 -6
-5 -14 -2 -11 5 -13 2 -9 -9 4 -11 12 -14 27 -9 25 8 79 6 120 -4 17 -4 27 -2
27 5 0 6 5 11 10 11 6 0 10 -8 10 -17 1 -17 1 -17 11 0 5 9 18 17 27 17 13 0
14 -2 4 -9 -20 -12 3 -18 56 -15 24 2 42 -1 42 -7 0 -5 -4 -7 -10 -4 -5 3 -18
1 -27 -4 -17 -10 -17 -10 0 -11 9 0 17 -6 17 -14 0 -14 45 -52 88 -75 17 -9
27 -10 37 -1 11 9 14 7 17 -10 2 -11 7 -19 11 -18 14 5 30 -32 19 -45 -18 -23
-21 -46 -7 -57 10 -8 20 -3 44 21 l32 31 39 -26 c22 -14 46 -26 54 -26 8 0 18
-5 21 -10 10 -16 37 10 30 28 -6 16 64 89 113 118 17 10 32 22 32 26 0 4 6 8
13 8 8 0 22 9 33 21 10 11 33 27 51 34 18 8 33 19 33 24 0 6 6 11 14 11 8 0
16 5 18 11 2 7 23 13 46 14 l43 2 -31 -18 c-17 -11 -28 -24 -25 -29 3 -6 -4
-10 -15 -10 -12 0 -35 -9 -50 -20 -16 -11 -35 -18 -43 -14 -8 3 -17 -2 -21
-12 -5 -14 -4 -15 9 -4 11 9 15 9 15 1 0 -6 -11 -16 -24 -21 -30 -11 -40 -26
-25 -36 7 -4 21 3 33 18 13 15 30 25 44 23 13 -1 22 4 22 12 0 7 5 13 10 13 6
0 10 8 10 18 0 14 2 15 10 2 6 -10 10 -11 10 -2 0 6 5 12 11 12 6 0 17 7 26
15 8 8 19 12 25 9 6 -4 8 -2 5 3 -4 6 1 13 12 16 10 2 22 -3 29 -13 7 -12 19
-16 36 -13 21 4 25 2 20 -11 -4 -11 -13 -15 -25 -11 -13 4 -19 1 -19 -9 0 -12
5 -14 24 -6 13 5 27 6 30 3 3 -4 6 2 6 13 0 15 2 16 9 5 12 -19 41 -23 41 -5
0 8 15 16 40 20 22 4 37 10 34 15 -2 4 -16 4 -29 -1 -14 -5 -25 -7 -25 -3 0 3
-9 -2 -20 -12 -19 -18 -20 -17 -21 6 -1 13 -1 27 0 32 0 4 -6 7 -15 7 -13 0
-14 -3 -5 -14 8 -9 8 -16 2 -20 -9 -6 -37 31 -29 39 8 9 88 11 88 2 0 -5 7 -7
15 -3 8 3 15 1 15 -3 0 -5 -6 -11 -12 -14 -7 -3 3 -5 22 -5 19 -1 48 -2 64 -4
16 -2 31 2 33 9 4 12 -14 12 -32 1 -19 -12 -38 8 -30 32 5 17 4 21 -6 17 -8
-2 -13 -10 -12 -16 2 -6 -2 -11 -7 -11 -5 0 -10 5 -10 10 0 6 -9 10 -19 10
-22 0 -36 16 -22 24 5 4 11 0 14 -6 2 -7 8 -10 12 -6 4 4 2 14 -5 23 -7 9 -10
18 -6 22 3 3 6 1 6 -5 0 -8 22 -12 65 -12 39 0 65 -4 65 -11 0 -6 -9 -8 -20
-4 -14 5 -20 2 -20 -9 0 -9 5 -16 11 -16 7 0 18 -8 25 -17 11 -16 17 -16 46
-6 l33 12 -25 -20 c-14 -12 -18 -20 -10 -19 40 6 59 0 53 -17 -4 -10 -2 -14 4
-10 6 4 13 16 16 27 4 15 1 20 -11 18 -10 -2 -18 5 -20 17 -3 15 -1 17 9 9 22
-17 51 -26 43 -13 -4 7 -1 10 7 7 8 -3 13 -11 11 -17 -1 -6 2 -11 8 -11 5 0
10 9 10 20 0 11 -4 20 -10 20 -5 0 -10 5 -10 11 0 6 7 9 15 5 8 -3 15 -1 15 4
0 6 -7 10 -15 10 -8 0 -15 5 -15 10 0 17 18 11 33 -10 8 -11 17 -17 20 -13 4
3 7 1 7 -5 0 -7 7 -12 15 -12 9 0 20 -12 25 -27 13 -37 32 -74 26 -50 -3 9 -2
17 2 17 15 0 62 -56 55 -65 -5 -4 -3 -5 4 -1 7 3 20 -4 30 -19 18 -25 33 -44
79 -99 14 -16 28 -26 31 -22 3 3 -1 14 -10 24 -10 10 -17 24 -17 31 0 6 -9 29
-19 49 -21 41 -17 56 23 100 42 47 144 81 231 77 25 -1 45 2 45 5 0 9 -108 40
-138 40 -11 0 -33 5 -49 11 -46 19 -95 11 -120 -19 -13 -15 -23 -35 -23 -44 0
-21 -28 -50 -41 -42 -6 3 -9 13 -8 22 3 39 -2 52 -26 58 -14 3 -22 10 -19 15
3 5 0 9 -5 9 -6 0 -11 10 -11 23 0 13 -3 17 -8 11 -5 -9 -11 -8 -20 2 -10 10
-10 14 -1 14 15 0 5 11 -13 14 -7 1 -23 8 -35 16 -16 11 -19 17 -11 27 7 9 7
18 -3 30 -12 15 -12 16 6 11 11 -3 29 -9 39 -14 45 -18 2 16 -49 40 -30 14
-55 29 -55 35 0 9 -57 29 -180 64 -49 14 -133 30 -102 20z m-487 -68 c1 -5 5
-16 11 -22 7 -9 7 -13 0 -13 -5 0 -13 8 -16 17 -6 15 -8 15 -16 3 -8 -12 -10
-10 -10 8 0 16 5 22 16 20 8 -2 15 -7 15 -13z m-133 -42 c-10 -2 -28 -2 -40 0
-13 2 -5 4 17 4 22 1 32 -1 23 -4z m172 -18 c0 -8 -2 -15 -4 -15 -2 0 -6 7
-10 15 -3 8 -1 15 4 15 6 0 10 -7 10 -15z m720 -56 c0 -6 -4 -7 -10 -4 -5 3
-10 11 -10 16 0 6 5 7 10 4 6 -3 10 -11 10 -16z m70 11 c0 -5 -5 -10 -11 -10
-5 0 -7 5 -4 10 3 6 8 10 11 10 2 0 4 -4 4 -10z m-1040 -10 c0 -5 -2 -10 -4
-10 -3 0 -8 5 -11 10 -3 6 -1 10 4 10 6 0 11 -4 11 -10z m-324 -15 c-3 -9 0
-15 8 -15 7 0 19 -7 26 -15 11 -13 8 -15 -19 -15 -18 0 -30 -4 -26 -9 3 -5 -4
-13 -16 -16 -13 -4 -25 -2 -29 5 -4 7 -12 10 -18 6 -6 -3 -17 -3 -26 0 -14 5
-12 10 11 30 15 12 30 21 35 18 4 -3 8 -1 8 5 0 5 10 12 23 14 12 2 24 5 26 6
2 0 1 -6 -3 -14z m614 -1 c0 -2 -9 -4 -21 -4 -11 0 -18 4 -14 10 5 8 35 3 35
-6z m725 6 c3 -5 1 -10 -4 -10 -6 0 -11 5 -11 10 0 6 2 10 4 10 3 0 8 -4 11
-10z m-1044 -27 c-12 -20 -14 -14 -5 12 4 9 9 14 11 11 3 -2 0 -13 -6 -23z
m169 13 c0 -3 -4 -8 -10 -11 -5 -3 -10 -1 -10 4 0 6 5 11 10 11 6 0 10 -2 10
-4z m-40 -16 c0 -5 -2 -10 -4 -10 -3 0 -8 5 -11 10 -3 6 -1 10 4 10 6 0 11 -4
11 -10z m110 -1 c0 -5 -4 -8 -9 -5 -5 4 -12 0 -14 -6 -3 -8 -6 -6 -6 5 -1 9 6
17 14 17 8 0 15 -5 15 -11z m215 -19 c8 -13 -25 -13 -45 0 -12 8 -9 10 12 10
15 0 30 -4 33 -10z m188 -30 c-3 -11 -9 -17 -14 -14 -14 8 -10 -12 4 -25 8 -6
18 -7 22 -3 5 4 5 1 1 -6 -4 -7 -1 -15 8 -18 17 -7 22 -24 6 -24 -14 0 -60 49
-60 65 0 20 -16 19 -24 -1 -3 -8 -10 -13 -15 -9 -5 3 -12 1 -16 -5 -3 -5 -17
-7 -31 -4 -17 5 -24 2 -24 -9 0 -8 -6 -18 -12 -20 -10 -4 -10 -6 0 -6 7 -1 15
6 18 14 4 8 10 12 16 9 14 -9 -28 -35 -46 -28 -9 3 -13 10 -10 15 3 5 -1 9 -8
9 -20 1 37 30 111 56 81 29 80 29 74 4z m52 9 c12 -18 -3 -22 -20 -5 -14 14
-14 16 -1 16 8 0 18 -5 21 -11z m-1075 -15 c0 -2 -9 -4 -21 -4 -11 0 -18 4
-14 10 5 8 35 3 35 -6z m-55 -24 c-3 -5 -14 -6 -25 -3 -16 4 -18 8 -9 19 9 11
15 11 25 3 8 -6 12 -15 9 -19z m1125 0 c0 -5 -2 -10 -4 -10 -3 0 -8 5 -11 10
-3 6 -1 10 4 10 6 0 11 -4 11 -10z m30 -10 c0 -4 -6 -10 -14 -13 -10 -4 -12 0
-9 14 5 18 23 18 23 -1z m239 13 c-3 -19 2 -33 12 -33 5 0 7 5 4 10 -8 13 5
13 25 0 13 -8 13 -10 -2 -10 -11 0 -15 -6 -11 -21 5 -18 3 -20 -13 -11 -10 5
-25 7 -31 5 -7 -3 -13 0 -13 6 0 6 7 11 15 11 12 0 13 4 5 19 -13 25 -13 31 0
31 6 0 9 -3 9 -7z m-1350 -16 c8 -11 5 -16 -17 -26 -25 -11 -26 -10 -7 4 17
14 18 17 5 25 -8 5 -10 10 -4 10 6 0 17 -6 23 -13z m821 -32 c-11 -13 -10 -14
5 -9 12 5 16 4 12 -3 -4 -6 -2 -13 3 -15 6 -2 -36 -33 -92 -70 -57 -37 -125
-88 -152 -113 -27 -25 -51 -45 -53 -45 -13 0 2 29 23 45 14 11 33 27 42 35 10
9 35 26 56 39 24 15 33 26 26 31 -7 4 -2 13 16 25 20 13 28 14 34 5 5 -9 9 -9
14 -1 4 6 2 11 -3 11 -22 0 -10 16 19 27 17 6 30 16 30 22 0 9 -6 9 -21 0 -16
-8 -20 -8 -14 1 7 11 41 28 59 29 5 1 3 -6 -4 -14z m780 11 c0 -3 -4 -8 -10
-11 -5 -3 -10 -1 -10 4 0 6 5 11 10 11 6 0 10 -2 10 -4z m-564 -33 c-7 -7 -26
7 -26 19 0 6 6 6 15 -2 9 -7 13 -15 11 -17z m-976 7 c0 -5 -2 -10 -4 -10 -3 0
-8 5 -11 10 -3 6 -1 10 4 10 6 0 11 -4 11 -10z m437 -296 c-3 -3 -12 -4 -19
-1 -8 3 -5 6 6 6 11 1 17 -2 13 -5z"/>
<path d="M3350 5549 c0 -5 5 -7 10 -4 6 3 10 8 10 11 0 2 -4 4 -10 4 -5 0 -10
-5 -10 -11z"/>
<path d="M3285 5510 c-3 -5 -2 -10 4 -10 5 0 13 5 16 10 3 6 2 10 -4 10 -5 0
-13 -4 -16 -10z"/>
<path d="M3010 5940 c-9 -6 -10 -10 -3 -10 6 0 15 5 18 10 8 12 4 12 -15 0z"/>
<path d="M3166 5942 c-2 -4 4 -8 14 -9 11 -1 22 2 25 8 4 5 -3 9 -14 9 -11 0
-22 -4 -25 -8z"/>
<path d="M3520 5940 c-8 -5 -10 -10 -5 -10 6 0 17 5 25 10 8 5 11 10 5 10 -5
0 -17 -5 -25 -10z"/>
<path d="M3476 5931 c-11 -17 6 -41 30 -41 17 0 22 4 18 15 -5 13 -9 13 -22 3
-13 -11 -15 -10 -10 10 6 22 -5 31 -16 13z"/>
<path d="M3270 5920 c0 -6 -4 -8 -10 -5 -5 3 -10 1 -10 -4 0 -13 10 -14 29 -2
9 6 10 11 2 15 -6 4 -11 2 -11 -4z"/>
<path d="M2945 5910 c-3 -5 -2 -10 4 -10 5 0 13 5 16 10 3 6 2 10 -4 10 -5 0
-13 -4 -16 -10z"/>
<path d="M2890 5902 c0 -7 -10 -17 -22 -22 -21 -8 -21 -9 -3 -9 32 -1 52 16
37 31 -9 9 -12 9 -12 0z"/>
<path d="M3610 5900 c-10 -6 -3 -8 23 -3 37 6 38 5 31 -21 -7 -30 8 -35 32
-11 13 13 13 15 1 15 -8 0 -17 7 -21 15 -6 17 -43 20 -66 5z"/>
<path d="M3540 5889 c0 -5 9 -9 20 -9 11 0 20 2 20 4 0 2 -9 6 -20 9 -11 3
-20 1 -20 -4z"/>
<path d="M3630 5868 c0 -12 3 -18 7 -14 11 10 12 36 2 36 -5 0 -9 -10 -9 -22z"/>
<path d="M3405 5870 c-3 -5 -1 -10 4 -10 6 0 11 5 11 10 0 6 -2 10 -4 10 -3 0
-8 -4 -11 -10z"/>
<path d="M3460 5870 c0 -5 5 -10 10 -10 6 0 10 5 10 10 0 6 -4 10 -10 10 -5 0
-10 -4 -10 -10z"/>
<path d="M4080 5834 c0 -7 52 -25 57 -20 2 2 -10 8 -26 14 -17 6 -31 9 -31 6z"/>
<path d="M3533 5785 c0 -8 4 -15 9 -15 4 0 8 4 8 9 0 6 -4 12 -8 15 -5 3 -9
-1 -9 -9z"/>
<path d="M4118 5783 c7 -3 16 -2 19 1 4 3 -2 6 -13 5 -11 0 -14 -3 -6 -6z"/>
<path d="M3650 5770 c0 -5 5 -10 10 -10 6 0 10 5 10 10 0 6 -4 10 -10 10 -5 0
-10 -4 -10 -10z"/>
<path d="M4281 5755 c4 -3 37 -17 75 -31 38 -13 74 -31 80 -39 13 -17 39 -21
28 -4 -8 13 -116 63 -159 73 -16 4 -27 5 -24 1z"/>
<path d="M4320 5699 c0 -5 -5 -7 -12 -3 -7 4 -8 3 -4 -4 10 -16 23 -15 30 3 3
8 1 15 -4 15 -6 0 -10 -5 -10 -11z"/>
<path d="M4190 5650 c0 -5 5 -10 10 -10 6 0 10 5 10 10 0 6 -4 10 -10 10 -5 0
-10 -4 -10 -10z"/>
<path d="M3768 5613 c7 -3 16 -2 19 1 4 3 -2 6 -13 5 -11 0 -14 -3 -6 -6z"/>
<path d="M2372 5578 c-8 -8 -9 -15 -1 -25 15 -18 38 -17 35 2 -4 25 -21 36
-34 23z"/>
<path d="M3770 5570 c0 -5 5 -10 10 -10 6 0 10 5 10 10 0 6 -4 10 -10 10 -5 0
-10 -4 -10 -10z"/>
<path d="M4625 5550 c10 -11 20 -20 23 -20 3 0 -3 9 -13 20 -10 11 -20 20 -23
20 -3 0 3 -9 13 -20z"/>
<path d="M3440 5549 c0 -5 5 -7 10 -4 6 3 10 8 10 11 0 2 -4 4 -10 4 -5 0 -10
-5 -10 -11z"/>
<path d="M4020 5550 c0 -5 7 -10 15 -10 8 0 15 5 15 10 0 6 -7 10 -15 10 -8 0
-15 -4 -15 -10z"/>
<path d="M3385 5510 c-16 -11 -25 -20 -19 -20 11 0 64 39 54 40 -3 0 -18 -9
-35 -20z"/>
<path d="M3530 5521 c0 -6 4 -13 10 -16 6 -3 7 1 4 9 -7 18 -14 21 -14 7z"/>
<path d="M4000 5510 c0 -5 5 -10 11 -10 5 0 7 5 4 10 -3 6 -8 10 -11 10 -2 0
-4 -4 -4 -10z"/>
<path d="M3501 5501 c-8 -6 -9 -11 -3 -15 6 -3 14 -1 17 5 9 14 2 20 -14 10z"/>
<path d="M3740 5500 c0 -12 17 -12 45 0 17 7 15 9 -12 9 -18 1 -33 -3 -33 -9z"/>
<path d="M3930 5470 c-13 -8 -12 -10 3 -10 9 0 17 5 17 10 0 12 -1 12 -20 0z"/>
<path d="M3460 5459 c0 -5 5 -7 10 -4 6 3 10 8 10 11 0 2 -4 4 -10 4 -5 0 -10
-5 -10 -11z"/>
<path d="M3980 5460 c-12 -7 -11 -10 5 -15 62 -19 253 -133 297 -177 27 -27
23 -42 -9 -32 -48 15 -118 8 -167 -16 -53 -25 -146 -106 -146 -126 0 -7 -9
-18 -20 -24 -11 -6 -19 -14 -18 -18 1 -4 -5 -20 -14 -37 -23 -44 -32 -79 -19
-71 6 4 11 1 11 -6 0 -8 5 -6 11 5 5 9 7 22 4 27 -4 6 1 7 12 3 15 -6 16 -4 6
8 -19 23 30 112 87 159 73 61 111 80 160 80 l44 0 -49 -32 c-61 -40 -104 -77
-116 -100 -15 -27 -5 -22 45 25 54 52 137 96 188 99 20 2 34 7 31 12 -3 4 4 5
16 1 22 -7 30 8 10 20 -6 4 -8 13 -5 21 6 17 -3 44 -15 44 -4 0 -6 -7 -3 -15
10 -26 -23 -6 -51 31 -28 37 -94 85 -140 101 -16 6 -39 14 -50 18 -11 4 -29 9
-40 10 -11 1 -27 5 -35 8 -8 4 -22 3 -30 -3z"/>
<path d="M3415 5430 c-3 -5 1 -10 10 -10 11 0 15 -6 11 -18 -4 -12 -1 -19 8
-19 11 0 12 6 4 29 -10 29 -22 35 -33 18z"/>
<path d="M3652 5391 c-61 -19 -199 -103 -255 -156 -15 -14 -31 -23 -36 -20 -5
3 -13 0 -17 -6 -5 -8 -3 -9 6 -4 9 6 11 4 6 -4 -5 -7 -14 -10 -22 -7 -10 4
-14 0 -12 -12 2 -11 -3 -17 -14 -16 -10 1 -15 -2 -12 -7 3 -5 -39 -69 -94
-142 -96 -127 -122 -167 -122 -183 0 -4 7 1 16 12 15 18 15 18 4 -3 -5 -12
-16 -20 -23 -17 -7 2 -17 -8 -24 -26 -6 -17 -7 -28 -2 -24 5 3 9 -4 9 -15 0
-11 -4 -22 -9 -25 -5 -4 -16 -27 -25 -52 -9 -26 -24 -53 -33 -60 -10 -7 -13
-14 -6 -14 8 0 4 -18 -12 -52 -14 -29 -24 -66 -24 -83 l1 -30 12 35 c6 19 14
40 18 46 4 6 21 45 37 88 16 42 50 112 76 156 25 44 43 86 39 92 -4 6 -3 8 3
5 14 -9 96 110 87 125 -5 7 -3 8 5 3 9 -5 29 9 57 39 25 25 51 46 58 46 8 0
17 7 20 16 4 11 13 14 27 11 15 -4 19 -2 15 9 -3 8 -1 14 4 14 6 0 9 4 7 9 -3
14 56 62 70 56 7 -2 12 0 10 6 -1 6 21 22 50 37 29 15 54 33 57 40 5 12 -43
-12 -132 -64 -34 -20 -46 -23 -58 -13 -21 17 -18 21 34 60 145 109 287 154
373 120 21 -9 22 -10 4 -11 -11 0 -31 -8 -45 -16 -24 -14 -23 -15 24 -9 27 4
58 10 70 14 19 8 18 9 -13 26 -51 26 -135 28 -209 6z m-261 -214 c-16 -16 -26
0 -10 19 9 11 15 12 17 4 2 -6 -1 -17 -7 -23z"/>
<path d="M3192 5369 c-24 -17 -41 -33 -38 -36 4 -5 86 56 86 64 0 5 -3 3 -48
-28z"/>
<path d="M3269 5393 c-1 -5 -1 -11 0 -15 0 -5 -4 -8 -9 -8 -6 0 -29 -12 -53
-27 -23 -15 -50 -27 -59 -28 -20 -2 -38 -15 -20 -15 6 0 9 -6 6 -13 -3 -8 1
-19 9 -25 10 -8 19 -6 39 11 23 20 25 24 11 33 -14 9 -9 14 26 32 54 29 63 27
26 -4 l-30 -26 32 16 c35 17 51 36 32 36 -10 0 -10 3 -1 12 7 7 12 16 12 20 0
10 -20 11 -21 1z m-88 -101 c-7 -2 -18 1 -23 6 -8 8 -4 9 13 5 13 -4 18 -8 10
-11z"/>
<path d="M4580 5389 c0 -5 5 -7 10 -4 6 3 10 8 10 11 0 2 -4 4 -10 4 -5 0 -10
-5 -10 -11z"/>
<path d="M5161 5397 c2 -1 13 -9 24 -17 19 -14 19 -14 6 3 -7 9 -18 17 -24 17
-6 0 -8 -1 -6 -3z"/>
<path d="M3344 5374 c-18 -14 -18 -15 4 -4 12 6 22 13 22 15 0 8 -5 6 -26 -11z"/>
<path d="M4458 5383 c-1 -5 -21 -17 -43 -28 -37 -18 -61 -55 -36 -55 6 0 10 5
9 12 -2 7 5 12 15 13 10 0 21 5 25 11 4 5 17 17 30 26 13 9 19 19 14 22 -6 3
-12 3 -14 -1z"/>
<path d="M3339 5341 c-38 -27 -50 -75 -21 -86 17 -6 44 13 36 26 -3 5 3 6 12
2 12 -4 15 -3 10 5 -9 16 -33 15 -39 0 -2 -7 -8 -10 -12 -6 -11 11 4 28 26 28
10 0 19 5 19 11 0 5 -6 7 -12 3 -7 -4 -4 2 6 14 28 32 17 33 -25 3z"/>
<path d="M3295 5340 c-3 -6 1 -7 9 -4 18 7 21 14 7 14 -6 0 -13 -4 -16 -10z"/>
<path d="M4830 5346 c0 -2 8 -10 18 -17 15 -13 16 -12 3 4 -13 16 -21 21 -21
13z"/>
<path d="M3275 5290 c-3 -5 1 -10 9 -10 9 0 16 5 16 10 0 6 -4 10 -9 10 -6 0
-13 -4 -16 -10z"/>
<path d="M5130 5286 c0 -2 8 -10 18 -17 15 -13 16 -12 3 4 -13 16 -21 21 -21
13z"/>
<path d="M3193 5258 c-13 -6 -23 -15 -23 -20 0 -5 11 -1 25 8 37 24 35 30 -2
12z"/>
<path d="M4452 5260 c-23 -5 -47 -12 -52 -15 -17 -11 0 -25 29 -25 41 0 145
-44 200 -84 51 -38 131 -135 131 -160 0 -7 7 -17 16 -20 9 -4 14 -13 10 -21
-3 -8 -1 -14 5 -12 6 1 16 -7 22 -17 7 -11 19 -27 27 -36 36 -41 48 -59 43
-64 -4 -3 -2 -6 4 -6 6 0 16 -14 22 -30 6 -18 6 -28 1 -25 -6 4 -10 -1 -10 -9
0 -9 -3 -16 -7 -16 -13 0 -39 20 -28 20 6 0 11 8 11 19 0 11 -6 18 -16 16 -8
-1 -14 -8 -12 -14 1 -6 -5 -11 -13 -11 -16 0 -17 -11 -5 -50 8 -24 8 -24 9 -2
1 26 29 30 38 6 4 -10 -1 -22 -11 -29 -9 -7 -13 -16 -8 -19 10 -6 35 21 45 49
6 14 11 15 19 7 9 -9 7 -17 -7 -32 -10 -11 -13 -20 -7 -20 6 0 14 5 18 11 4 8
9 7 15 -2 6 -10 9 -11 9 -1 0 6 5 12 11 12 17 0 -1 -21 -27 -30 -32 -12 -32
-34 0 -26 16 4 26 1 30 -10 3 -8 9 -13 14 -10 4 2 14 1 22 -4 12 -7 9 -14 -15
-34 -16 -14 -26 -28 -22 -32 4 -4 7 -2 7 4 0 7 5 12 10 12 6 0 10 -7 10 -15 0
-8 -5 -15 -11 -15 -5 0 -8 -4 -5 -8 2 -4 21 -7 40 -7 20 1 36 -3 36 -8 0 -5
-11 -6 -25 -3 -25 6 -36 -9 -13 -16 7 -3 11 -20 10 -46 -3 -38 0 -42 20 -42
19 0 20 -2 8 -10 -12 -8 -12 -10 -1 -10 7 0 24 -12 36 -26 13 -15 27 -24 31
-21 5 3 7 35 6 71 -2 37 -8 64 -13 60 -8 -5 -11 3 -8 24 1 4 5 6 11 4 10 -3 0
40 -12 48 -4 3 -4 14 0 25 4 11 3 31 -2 44 -5 14 -7 30 -4 38 6 14 36 7 36 -9
0 -5 -5 -6 -11 -2 -8 4 -9 -1 -4 -17 10 -33 15 -36 25 -19 8 13 10 12 10 -2 0
-9 5 -20 12 -24 8 -5 9 -1 5 14 -16 53 -19 67 -9 53 6 -8 12 -9 16 -3 9 15 -4
43 -17 35 -6 -4 -7 -1 -2 6 8 14 -42 121 -57 121 -5 0 -6 9 -3 21 6 18 5 19
-13 8 -15 -9 -23 -9 -38 0 -18 12 -18 12 3 8 38 -8 45 15 18 59 -13 21 -25 49
-25 62 0 12 -4 22 -10 22 -5 0 -6 7 -3 17 4 9 2 14 -3 11 -5 -4 -17 0 -27 7
-13 9 -15 15 -7 20 8 5 4 12 -10 22 -12 8 -24 12 -27 9 -4 -3 -1 -6 5 -6 7 0
12 -4 12 -10 0 -5 -9 -10 -21 -10 -14 0 -19 5 -16 14 4 10 1 13 -9 9 -11 -4
-12 -9 -5 -16 7 -7 7 -15 0 -24 -8 -9 -8 -13 -1 -13 6 0 12 5 14 12 3 7 10 8
17 3 11 -6 10 -10 -3 -17 -24 -14 -74 0 -91 25 -21 31 -19 11 3 -21 31 -47 69
-125 87 -182 10 -30 21 -63 26 -73 8 -15 7 -16 -11 -5 -11 7 -20 16 -20 19 0
3 -15 26 -33 50 -19 24 -49 72 -68 105 -19 34 -52 83 -74 109 -22 26 -48 60
-59 76 -16 25 -16 28 -2 23 14 -5 12 1 -6 32 l-23 39 38 -29 c21 -16 56 -50
77 -75 22 -25 42 -42 46 -39 8 8 -149 168 -165 168 -7 0 -10 4 -7 8 2 4 -3 8
-12 9 -9 1 -37 7 -62 13 -71 18 -92 19 -138 10z m228 -120 c0 -5 -2 -10 -4
-10 -3 0 -8 5 -11 10 -3 6 -1 10 4 10 6 0 11 -4 11 -10z m255 -200 c-3 -5 -10
-10 -16 -10 -5 0 -9 5 -9 10 0 6 7 10 16 10 8 0 12 -4 9 -10z m35 -16 c0 -9
-5 -12 -11 -8 -7 4 -9 0 -5 -14 4 -11 2 -23 -3 -27 -7 -4 -8 1 -4 11 4 10 2
15 -4 11 -5 -3 -10 0 -10 8 0 8 4 15 9 15 4 0 8 7 8 16 0 8 5 12 10 9 6 -3 10
-13 10 -21z m65 -124 c3 -5 -3 -10 -14 -10 -12 0 -21 5 -21 10 0 6 6 10 14 10
8 0 18 -4 21 -10z m42 -52 c-3 -8 -6 -5 -6 6 -1 11 2 17 5 13 3 -3 4 -12 1
-19z m-50 -34 c-9 -9 -28 6 -21 18 4 6 10 6 17 -1 6 -6 8 -13 4 -17z m58 6 c3
-5 1 -10 -4 -10 -6 0 -11 5 -11 10 0 6 2 10 4 10 3 0 8 -4 11 -10z m42 -6 c-3
-3 -12 -4 -19 -1 -8 3 -5 6 6 6 11 1 17 -2 13 -5z m-72 -24 c3 -5 -1 -10 -9
-10 -8 0 -18 5 -21 10 -3 6 1 10 9 10 8 0 18 -4 21 -10z m45 0 c0 -5 -4 -10
-10 -10 -5 0 -10 -7 -10 -15 0 -8 -5 -15 -11 -15 -5 0 -8 3 -6 8 2 4 7 15 10
25 7 18 27 24 27 7z m-93 -162 c-3 -8 -6 -5 -6 6 -1 11 2 17 5 13 3 -3 4 -12
1 -19z m67 -84 c9 -3 13 -10 10 -15 -3 -5 1 -9 8 -10 7 0 2 -5 -11 -10 -13 -5
-26 -7 -29 -4 -3 3 0 5 6 5 6 0 9 7 5 16 -5 13 -7 13 -14 2 -5 -7 -9 -8 -9 -2
0 10 9 24 16 24 1 0 9 -3 18 -6z m34 -89 c-9 -9 -30 14 -23 25 6 9 10 8 17 -4
6 -10 8 -19 6 -21z"/>
<path d="M3233 5243 c-22 -8 -14 -21 12 -19 14 0 25 4 25 7 0 10 -23 17 -37
12z"/>
<path d="M2843 5228 c1 -7 -6 -12 -15 -12 -10 1 -18 -2 -18 -7 0 -4 -11 -19
-25 -33 -14 -14 -25 -30 -25 -37 0 -12 54 32 89 74 18 22 19 27 7 27 -9 0 -15
-6 -13 -12z"/>
<path d="M3190 5220 c0 -5 5 -10 11 -10 5 0 7 5 4 10 -3 6 -8 10 -11 10 -2 0
-4 -4 -4 -10z"/>
<path d="M4416 5158 c19 -29 37 -63 40 -75 4 -13 10 -23 14 -23 4 0 8 -10 8
-22 0 -27 40 -118 51 -118 11 0 10 33 -2 48 -5 6 -6 12 -2 12 4 0 1 8 -6 17
-10 12 -10 15 -1 9 7 -4 4 8 -7 27 -11 19 -17 37 -15 40 9 9 -29 46 -39 40 -6
-4 -8 3 -4 16 3 13 3 20 0 17 -7 -7 -33 19 -33 33 0 6 -9 15 -19 21 -15 8 -11
-3 15 -42z"/>
<path d="M5265 5170 c10 -11 20 -20 23 -20 3 0 -3 9 -13 20 -10 11 -20 20 -23
20 -3 0 3 -9 13 -20z"/>
<path d="M3250 5162 c0 -12 19 -26 26 -19 2 2 -2 10 -11 17 -9 8 -15 8 -15 2z"/>
<path d="M3454 5162 c3 -5 1 -12 -6 -14 -8 -3 -6 -7 5 -11 20 -7 24 17 5 29
-6 4 -8 3 -4 -4z"/>
<path d="M4981 5130 c14 -31 19 -36 19 -24 0 6 -7 19 -16 30 -14 18 -14 18 -3
-6z"/>
<path d="M4910 5110 c0 -6 7 -10 15 -10 8 0 15 2 15 4 0 2 -7 6 -15 10 -8 3
-15 1 -15 -4z"/>
<path d="M2728 5093 c-29 -34 -30 -48 -2 -21 15 15 26 30 23 33 -3 3 -13 -3
-21 -12z"/>
<path d="M3370 5090 c0 -5 5 -10 10 -10 6 0 10 5 10 10 0 6 -4 10 -10 10 -5 0
-10 -4 -10 -10z"/>
<path d="M5380 5058 c24 -27 45 -48 47 -48 8 0 0 9 -44 50 l-48 45 45 -47z"/>
<path d="M3410 5079 c0 -5 5 -7 10 -4 6 3 10 8 10 11 0 2 -4 4 -10 4 -5 0 -10
-5 -10 -11z"/>
<path d="M5007 5068 c11 -13 30 -41 41 -63 12 -22 21 -35 21 -30 1 18 -59 115
-71 115 -6 0 -2 -10 9 -22z"/>
<path d="M3435 5050 c3 -5 10 -10 16 -10 5 0 9 5 9 10 0 6 -7 10 -16 10 -8 0
-12 -4 -9 -10z"/>
<path d="M3693 5025 c-17 -19 -16 -25 2 -25 8 0 15 9 15 20 0 23 -1 24 -17 5z"/>
<path d="M3985 5008 c-41 -46 -85 -107 -85 -116 0 -5 -10 -20 -23 -34 -26 -28
-47 -91 -46 -134 0 -16 3 -22 5 -14 27 82 100 204 117 193 6 -3 7 -1 3 6 -12
18 4 53 21 47 9 -4 13 -1 10 6 -2 7 2 21 10 30 8 9 13 22 11 28 -2 6 -12 1
-23 -12z"/>
<path d="M3580 4990 c0 -7 -7 -9 -16 -6 -14 5 -15 4 -4 -9 7 -9 16 -12 19 -8
3 4 10 11 15 14 4 4 3 10 -3 13 -6 4 -11 2 -11 -4z"/>
<path d="M3730 4980 c0 -5 5 -10 11 -10 5 0 7 5 4 10 -3 6 -8 10 -11 10 -2 0
-4 -4 -4 -10z"/>
<path d="M4006 4983 c-3 -3 -6 -14 -6 -24 0 -9 -9 -19 -21 -22 -24 -6 -17 -27
9 -27 15 0 15 2 2 10 -13 8 -12 10 3 10 12 0 17 8 18 28 0 24 1 25 9 7 7 -16
9 -17 9 -3 1 19 -13 31 -23 21z"/>
<path d="M4100 4970 c0 -5 5 -10 10 -10 6 0 10 5 10 10 0 6 -4 10 -10 10 -5 0
-10 -4 -10 -10z"/>
<path d="M4725 4950 c-3 -5 -1 -10 4 -10 6 0 11 5 11 10 0 6 -2 10 -4 10 -3 0
-8 -4 -11 -10z"/>
<path d="M5070 4956 c0 -2 10 -26 22 -53 12 -26 21 -51 20 -55 -1 -5 2 -8 8
-8 5 0 7 -8 3 -17 -3 -10 -2 -15 2 -10 5 4 17 -5 27 -20 31 -47 20 -17 -27 77
-39 78 -55 103 -55 86z"/>
<path d="M4040 4930 c0 -5 5 -10 11 -10 5 0 7 5 4 10 -3 6 -8 10 -11 10 -2 0
-4 -4 -4 -10z"/>
<path d="M4687 4919 c7 -7 15 -10 18 -7 3 3 -2 9 -12 12 -14 6 -15 5 -6 -5z"/>
<path d="M4655 4910 c3 -5 8 -10 11 -10 2 0 4 5 4 10 0 6 -5 10 -11 10 -5 0
-7 -4 -4 -10z"/>
<path d="M4526 4902 c-5 -8 11 -82 25 -117 4 -11 10 -42 14 -70 5 -46 4 -49
-10 -31 -8 11 -15 14 -15 8 0 -7 -8 -12 -17 -12 -14 -1 -12 -4 7 -14 14 -8 28
-12 32 -10 5 3 8 -5 9 -18 0 -13 3 -34 5 -48 8 -47 5 -226 -5 -323 -1 -5 -7
-5 -13 -1 -10 6 -10 4 0 -8 28 -35 -57 -366 -125 -480 -2 -5 -2 -8 1 -8 5 0
49 78 51 90 0 3 15 35 33 73 17 37 32 77 32 90 1 12 7 36 15 52 13 28 14 21
12 -87 -2 -65 0 -118 4 -118 9 0 22 172 26 350 4 194 7 232 16 248 5 6 5 18 1
24 -5 7 -9 29 -10 48 -4 58 -14 154 -20 180 -3 14 -7 38 -9 54 -3 16 -11 53
-20 82 -14 50 -27 65 -39 46z"/>
<path d="M3985 4890 c-3 -6 1 -7 9 -4 18 7 21 14 7 14 -6 0 -13 -4 -16 -10z"/>
<path d="M3867 4883 c-4 -3 -7 -13 -7 -22 1 -13 3 -13 11 2 11 19 8 33 -4 20z"/>
<path d="M4116 4875 c4 -8 8 -15 10 -15 2 0 4 7 4 15 0 8 -4 15 -10 15 -5 0
-7 -7 -4 -15z"/>
<path d="M3802 4853 c-19 -36 -42 -127 -42 -169 0 -23 -4 -44 -10 -46 -20 -7
-15 -50 8 -65 21 -15 22 -14 21 13 -1 17 -3 22 -6 12 -2 -10 -9 -18 -14 -18
-5 0 -3 16 5 35 9 20 13 42 10 49 -3 8 -1 17 5 21 6 3 11 21 11 39 0 18 7 56
16 85 16 54 14 78 -4 44z"/>
<path d="M4726 4847 c3 -10 9 -15 12 -12 3 3 0 11 -7 18 -10 9 -11 8 -5 -6z"/>
<path d="M4800 4840 c0 -5 5 -10 10 -10 6 0 10 5 10 10 0 6 -4 10 -10 10 -5 0
-10 -4 -10 -10z"/>
<path d="M4113 4834 c3 -4 2 -15 -4 -25 -6 -12 -6 -19 0 -19 5 0 11 -8 13 -17
3 -10 5 1 5 25 0 23 -4 42 -10 42 -6 0 -7 -3 -4 -6z"/>
<path d="M4140 4829 c0 -5 5 -7 10 -4 6 3 10 8 10 11 0 2 -4 4 -10 4 -5 0 -10
-5 -10 -11z"/>
<path d="M3960 4816 c0 -9 5 -16 10 -16 6 0 10 4 10 9 0 6 -4 13 -10 16 -5 3
-10 -1 -10 -9z"/>
<path d="M4030 4819 c0 -5 -5 -7 -12 -3 -6 4 -8 3 -4 -4 3 -5 0 -12 -6 -15
-10 -3 -8 -9 5 -23 9 -10 17 -14 18 -9 0 6 2 22 4 38 2 15 2 27 -1 27 -2 0 -4
-5 -4 -11z"/>
<path d="M4750 4826 c0 -2 7 -7 16 -10 8 -3 12 -2 9 4 -6 10 -25 14 -25 6z"/>
<path d="M4644 4812 c4 -7 2 -21 -5 -30 -12 -15 -11 -15 6 0 16 15 17 20 6 30
-11 11 -13 10 -7 0z"/>
<path d="M4150 4805 c0 -14 21 -45 32 -45 6 0 5 6 -3 16 -12 15 -11 16 10 9
17 -5 22 -4 19 6 -4 14 -58 26 -58 14z"/>
<path d="M3960 4772 c0 -12 19 -26 26 -19 2 2 -2 10 -11 17 -9 8 -15 8 -15 2z"/>
<path d="M4046 4763 c-6 -14 -5 -15 5 -6 7 7 10 15 7 18 -3 3 -9 -2 -12 -12z"/>
<path d="M4204 4761 c-11 -12 -1 -19 23 -17 35 4 42 24 8 22 -15 0 -29 -3 -31
-5z"/>
<path d="M4606 4751 c-3 -5 1 -11 9 -15 8 -3 15 -1 15 4 0 13 -18 22 -24 11z"/>
<path d="M4657 4754 c7 -3 9 -12 6 -20 -4 -10 0 -12 10 -8 20 7 10 34 -12 33
-9 0 -11 -3 -4 -5z"/>
<path d="M4795 4750 c-3 -5 -1 -10 4 -10 6 0 11 5 11 10 0 6 -2 10 -4 10 -3 0
-8 -4 -11 -10z"/>
<path d="M4096 4737 c3 -10 9 -15 12 -12 3 3 0 11 -7 18 -10 9 -11 8 -5 -6z"/>
<path d="M4710 4734 c0 -8 5 -12 10 -9 6 4 8 11 5 16 -9 14 -15 11 -15 -7z"/>
<path d="M3935 4731 c-3 -5 -1 -12 5 -16 5 -3 10 1 10 9 0 18 -6 21 -15 7z"/>
<path d="M5181 4735 c0 -5 8 -26 19 -45 11 -19 19 -30 19 -25 0 6 -8 26 -19
45 -11 19 -19 31 -19 25z"/>
<path d="M4203 4693 c-1 -24 2 -32 8 -22 11 18 12 59 1 59 -4 0 -9 -16 -9 -37z"/>
<path d="M4748 4713 c7 -3 16 -2 19 1 4 3 -2 6 -13 5 -11 0 -14 -3 -6 -6z"/>
<path d="M4352 4660 c1 -28 -1 -50 -5 -50 -5 0 -5 -5 -2 -10 13 -21 22 1 23
55 0 31 -4 55 -10 55 -6 0 -9 -21 -6 -50z"/>
<path d="M4147 4678 c4 -19 3 -20 -6 -8 -10 13 -11 13 -11 0 0 -8 -3 -26 -7
-40 -3 -15 -2 -22 3 -17 5 5 9 12 9 15 0 14 17 32 24 27 5 -2 6 7 3 20 -2 14
-8 25 -12 25 -5 0 -6 -10 -3 -22z"/>
<path d="M4710 4680 c-9 -6 -10 -10 -3 -10 6 0 15 5 18 10 8 12 4 12 -15 0z"/>
<path d="M4816 4655 c-3 -8 -1 -15 4 -15 13 0 22 18 11 24 -5 3 -11 -1 -15 -9z"/>
<path d="M4720 4640 c0 -19 3 -21 12 -12 9 9 9 15 0 24 -9 9 -12 7 -12 -12z"/>
<path d="M4762 4641 c13 -22 28 -28 28 -11 0 5 -9 14 -20 20 -19 10 -20 10 -8
-9z"/>
<path d="M5220 4648 c0 -4 9 -31 21 -60 43 -109 72 -268 50 -268 -5 0 -8 -15
-6 -32 11 -78 12 -117 4 -129 -4 -8 -4 -16 1 -19 5 -3 -2 -18 -16 -33 -14 -15
-21 -27 -16 -27 4 0 8 -16 9 -35 2 -63 -18 -39 -41 50 -3 11 -3 -9 0 -45 4
-47 11 -70 25 -81 16 -14 16 -18 4 -23 -8 -3 -15 -14 -15 -25 0 -11 -6 -24
-13 -28 -11 -6 -12 -22 -7 -65 3 -32 3 -58 -1 -58 -4 0 -10 38 -14 85 -4 47
-11 87 -14 90 -4 2 -7 -4 -6 -13 1 -9 5 -57 10 -105 4 -52 13 -94 21 -102 16
-16 19 -29 4 -20 -10 6 -16 -72 -12 -148 2 -24 -1 -36 -8 -32 -6 4 -10 -6 -10
-24 0 -17 -4 -31 -8 -31 -5 0 -7 -24 -6 -52 2 -29 1 -47 -2 -40 -3 6 -10 10
-15 6 -5 -3 -9 0 -9 5 0 6 5 11 11 11 6 0 7 5 2 13 -4 6 -6 20 -5 29 2 10 -6
28 -17 40 -12 12 -21 25 -21 30 0 13 18 9 23 -4 3 -8 6 -7 6 4 1 9 -3 19 -8
23 -6 3 -8 24 -5 46 3 22 1 38 -4 35 -4 -2 -8 21 -8 52 -1 124 -4 157 -13 143
-8 -12 -11 -9 -17 14 -4 16 -2 36 5 46 6 10 11 27 11 36 0 12 -8 6 -23 -17
-19 -31 -22 -47 -20 -130 1 -52 4 -104 6 -115 2 -11 -1 -29 -8 -40 -13 -21
-14 -132 -2 -152 4 -7 1 -10 -8 -9 -22 3 -23 6 -30 75 -4 35 -10 82 -13 104
l-7 40 -39 -74 c-21 -41 -45 -81 -52 -90 -8 -8 -14 -29 -14 -46 0 -16 -3 -32
-6 -35 -3 -4 -8 -48 -10 -99 -3 -51 -7 -96 -10 -101 -3 -4 -1 -8 4 -8 6 0 12
21 15 48 15 152 29 240 34 224 3 -6 9 -10 14 -7 5 4 6 -1 3 -10 -4 -8 1 -37 9
-63 9 -26 14 -61 12 -77 -3 -17 -2 -57 2 -90 6 -57 7 -58 14 -25 4 19 11 65
14 102 8 82 25 90 25 12 0 -53 33 -154 50 -154 4 0 5 -11 2 -25 -2 -14 0 -25
6 -25 6 0 14 -16 18 -35 3 -19 10 -32 15 -29 5 3 9 -10 9 -29 0 -20 6 -37 13
-40 11 -4 14 -38 13 -155 -1 -123 1 -147 11 -129 11 19 12 19 13 4 0 -10 4
-15 10 -12 6 3 7 -1 4 -9 -4 -11 0 -16 12 -16 14 0 15 -3 6 -12 -8 -8 -15 -8
-28 3 -16 13 -16 12 -3 -11 8 -13 20 -31 27 -38 11 -12 12 -10 6 13 -5 19 -3
26 4 21 13 -8 7 37 -9 66 -6 11 -8 22 -6 25 3 2 8 -5 12 -16 8 -27 21 -27 28
-1 3 13 0 20 -9 20 -8 0 -14 4 -14 10 0 5 7 7 15 4 11 -5 13 -2 9 10 -3 9 -1
16 5 16 6 0 11 13 11 29 0 17 5 33 10 36 7 4 9 -2 5 -17 -6 -23 -9 -198 -5
-250 1 -16 7 -28 12 -28 5 0 7 4 4 9 -4 5 0 11 6 14 10 3 10 7 0 19 -10 13
-10 17 2 21 9 4 18 1 22 -5 4 -7 3 -8 -4 -4 -16 9 -15 -7 0 -22 9 -9 9 -12 -2
-12 -13 0 -13 -2 0 -10 11 -7 12 -10 2 -10 -9 0 -11 -7 -7 -21 5 -15 4 -19 -4
-15 -6 4 -12 1 -12 -6 -5 -60 -32 -108 -61 -108 -10 0 -10 -3 2 -9 8 -6 18 -7
22 -5 4 3 5 -2 2 -10 -9 -24 5 -39 22 -25 11 9 18 9 26 1 9 -9 7 -12 -10 -13
-42 -3 -45 -4 -53 -24 -11 -28 -11 -35 1 -35 6 0 10 8 10 18 0 14 2 15 10 2 7
-11 4 -19 -8 -30 -9 -8 -15 -14 -13 -12 3 1 10 -7 17 -20 10 -18 9 -24 -10
-39 -20 -17 -20 -17 -1 -16 16 2 20 -4 18 -25 -2 -28 12 -39 20 -15 2 6 3 0 1
-15 -2 -15 1 -30 5 -33 12 -7 21 57 10 71 -6 8 -4 14 6 18 8 3 15 0 15 -7 0
-7 4 -6 10 3 7 11 5 17 -8 22 -16 6 -16 7 0 7 14 1 16 8 11 36 -4 26 -1 41 12
55 12 14 19 46 25 119 4 54 11 105 16 112 4 7 8 108 8 225 1 193 5 238 22 222
3 -3 10 -39 15 -80 6 -40 19 -99 30 -130 10 -32 19 -67 19 -78 0 -14 4 -19 12
-14 8 5 9 2 5 -9 -3 -9 -2 -19 3 -22 4 -3 13 7 18 22 l10 28 2 -35 c0 -28 2
-32 11 -18 10 17 -10 111 -31 150 -14 25 -12 38 5 38 8 0 15 -8 15 -17 0 -9 2
-14 5 -11 3 2 2 27 -2 53 -4 36 -8 44 -13 30 -4 -11 -5 -26 -3 -32 3 -7 1 -13
-5 -13 -5 0 -13 7 -16 16 -9 22 -8 26 5 18 8 -4 9 4 4 27 -5 27 -4 31 5 19 9
-11 10 -1 6 43 -7 72 -13 84 -33 60 -14 -17 -14 -17 -9 0 3 10 6 23 6 28 0 6
5 7 10 4 6 -3 10 -1 10 4 0 6 -4 11 -9 11 -11 0 -25 59 -16 68 3 3 10 0 16 -8
6 -11 8 -6 4 15 -3 17 -12 118 -20 225 -32 408 -36 456 -45 505 -5 28 -17 109
-26 180 -9 72 -26 171 -39 220 -30 119 -133 405 -135 373z m97 -500 c-3 -7 -5
-2 -5 12 0 14 2 19 5 13 2 -7 2 -19 0 -25z m55 -63 c-6 -34 -12 -32 -12 6 0
16 4 28 9 25 4 -3 6 -17 3 -31z m12 -61 c3 -8 2 -12 -4 -9 -6 3 -10 10 -10 16
0 14 7 11 14 -7z m-24 -240 c0 -8 -19 -13 -24 -6 -3 5 1 9 9 9 8 0 15 -2 15
-3z m-70 -128 c0 -3 -4 -8 -10 -11 -5 -3 -10 -1 -10 4 0 6 5 11 10 11 6 0 10
-2 10 -4z m150 -131 c0 -5 -5 -3 -10 5 -5 8 -10 20 -10 25 0 6 5 3 10 -5 5 -8
10 -19 10 -25z m-109 -103 c16 -28 16 -30 0 -25 -26 9 -41 34 -41 67 0 34 -1
36 41 -42z m-84 16 c-3 -7 -5 -2 -5 12 0 14 2 19 5 13 2 -7 2 -19 0 -25z m190
-50 c-3 -8 -6 -5 -6 6 -1 11 2 17 5 13 3 -3 4 -12 1 -19z m-257 -98 c0 -5 -7
-10 -16 -10 -8 0 -12 5 -9 10 3 6 10 10 16 10 5 0 9 -4 9 -10z m50 -5 c0 -8
-2 -15 -4 -15 -2 0 -6 7 -10 15 -3 8 -1 15 4 15 6 0 10 -7 10 -15z m-16 -23
c3 -5 -1 -9 -9 -9 -8 0 -12 4 -9 9 3 4 7 8 9 8 2 0 6 -4 9 -8z m86 -12 c0 -11
-2 -20 -4 -20 -2 0 -6 9 -9 20 -3 11 -1 20 4 20 5 0 9 -9 9 -20z m-74 -28
c-17 -16 -18 -16 -5 5 7 12 15 20 18 17 3 -2 -3 -12 -13 -22z m133 21 c0 -5
-4 -17 -9 -28 -8 -18 -9 -17 -9 8 -1 15 4 27 9 27 6 0 10 -3 9 -7z m-164 -43
c2 -4 -7 -6 -21 -4 -35 3 -41 12 -9 12 14 0 27 -4 30 -8z m35 -24 c0 -3 -4 -8
-10 -11 -5 -3 -10 -1 -10 4 0 6 5 11 10 11 6 0 10 -2 10 -4z m80 -10 c0 -3 -4
-8 -10 -11 -5 -3 -10 -1 -10 4 0 6 5 11 10 11 6 0 10 -2 10 -4z m56 -18 c4 -6
3 -8 -4 -4 -6 3 -13 2 -16 -3 -3 -5 1 -11 9 -15 8 -3 15 -10 15 -16 0 -5 -9
-2 -19 7 -11 9 -17 22 -14 29 6 17 19 18 29 2z m-181 -8 c-3 -5 -12 -10 -18
-10 -7 0 -6 4 3 10 19 12 23 12 15 0z m162 -36 c-3 -3 -12 -4 -19 -1 -8 3 -5
6 6 6 11 1 17 -2 13 -5z m-80 -91 c-3 -10 -5 -2 -5 17 0 19 2 27 5 18 2 -10 2
-26 0 -35z m73 3 c0 -3 -4 -8 -10 -11 -5 -3 -10 -1 -10 4 0 6 5 11 10 11 6 0
10 -2 10 -4z m-27 -30 c4 -10 1 -13 -8 -9 -8 3 -12 9 -9 14 7 12 11 11 17 -5z
m-98 -12 c22 -22 10 -32 -13 -11 -10 10 -22 14 -27 10 -4 -5 -5 -2 -1 5 10 16
21 15 41 -4z m65 -53 c0 -6 -4 -13 -10 -16 -5 -3 -10 1 -10 9 0 9 5 16 10 16
6 0 10 -4 10 -9z m50 -26 c0 -8 -2 -15 -4 -15 -2 0 -6 7 -10 15 -3 8 -1 15 4
15 6 0 10 -7 10 -15z m-22 -30 c-3 -3 -9 2 -12 12 -6 14 -5 15 5 6 7 -7 10
-15 7 -18z m-3 -213 c-3 -3 -11 0 -18 7 -9 10 -8 11 6 5 10 -3 15 -9 12 -12z
m0 -372 c3 -5 1 -10 -4 -10 -6 0 -11 5 -11 10 0 6 2 10 4 10 3 0 8 -4 11 -10z"/>
<path d="M4490 4626 c0 -19 26 -40 35 -26 3 5 1 10 -4 10 -6 0 -11 7 -11 15 0
8 -4 15 -10 15 -5 0 -10 -6 -10 -14z"/>
<path d="M4530 4630 c0 -5 5 -10 10 -10 6 0 10 5 10 10 0 6 -4 10 -10 10 -5 0
-10 -4 -10 -10z"/>
<path d="M4832 4628 c-7 -7 -12 -16 -12 -22 0 -6 5 -5 11 1 6 6 19 9 28 6 9
-3 12 -1 6 4 -5 4 -13 11 -16 15 -3 4 -11 2 -17 -4z"/>
<path d="M3572 4605 c-17 -37 -14 -45 4 -12 9 16 14 31 11 33 -2 2 -9 -7 -15
-21z"/>
<path d="M4081 4618 c0 -10 -5 -18 -10 -18 -10 0 -9 -26 2 -36 10 -10 19 21
14 48 -3 14 -5 17 -6 6z"/>
<path d="M4670 4618 c0 -9 5 -20 10 -23 13 -8 13 5 0 25 -8 13 -10 13 -10 -2z"/>
<path d="M4460 4600 c0 -5 5 -10 10 -10 6 0 10 5 10 10 0 6 -4 10 -10 10 -5 0
-10 -4 -10 -10z"/>
<path d="M4881 4594 c0 -11 3 -14 6 -6 3 7 2 16 -1 19 -3 4 -6 -2 -5 -13z"/>
<path d="M4933 4586 c3 -8 1 -16 -5 -18 -14 -5 -3 -38 13 -38 6 0 9 7 6 15 -4
8 -2 17 3 20 15 9 12 22 -6 29 -11 4 -15 2 -11 -8z"/>
<path d="M4130 4584 c0 -2 9 -8 20 -14 11 -6 20 -7 20 -2 0 6 -9 12 -20 15
-11 3 -20 3 -20 1z"/>
<path d="M4533 4570 c-1 -11 2 -20 7 -20 5 0 11 -8 14 -17 2 -10 4 -3 3 16 -2
37 -22 54 -24 21z"/>
<path d="M4715 4579 c-4 -6 -5 -12 -2 -15 2 -3 7 2 10 11 7 17 1 20 -8 4z"/>
<path d="M4350 4530 c0 -40 -3 -50 -17 -50 -13 0 -14 -3 -5 -12 14 -14 16 -52
2 -43 -17 10 -11 -7 8 -22 9 -8 11 -12 5 -8 -8 4 -13 -1 -14 -14 -1 -12 -3
-25 -4 -31 -1 -5 -3 -17 -4 -25 0 -8 -8 -15 -16 -15 -8 0 -15 -4 -15 -10 0 -5
7 -10 15 -10 8 0 12 -6 9 -14 -3 -8 2 -29 12 -45 21 -36 44 -26 44 20 0 16 5
29 13 29 9 0 9 2 -1 9 -16 10 -14 109 2 130 6 9 7 12 1 9 -7 -4 -10 21 -9 73
2 62 -1 79 -12 79 -10 0 -14 -14 -14 -50z"/>
<path d="M4495 4560 c-3 -5 -1 -10 4 -10 6 0 11 5 11 10 0 6 -2 10 -4 10 -3 0
-8 -4 -11 -10z"/>
<path d="M5124 4557 c3 -10 9 -43 12 -73 4 -30 11 -51 16 -48 6 4 8 23 5 43
-8 56 -12 70 -27 84 -10 10 -12 9 -6 -6z"/>
<path d="M2872 4519 c-6 -23 -7 -38 -2 -33 9 10 24 74 17 74 -3 0 -9 -19 -15
-41z"/>
<path d="M3546 4545 c-3 -9 -6 -24 -5 -33 0 -9 5 -4 10 12 9 32 6 48 -5 21z"/>
<path d="M3731 4541 c-7 -5 -14 -28 -16 -52 -1 -24 -1 -34 2 -21 2 12 8 22 13
22 4 0 6 10 2 22 -3 13 -1 19 5 15 6 -4 13 0 17 8 6 17 -2 19 -23 6z"/>
<path d="M4716 4525 c-3 -13 0 -64 8 -112 8 -48 14 -113 15 -143 0 -30 3 -72
6 -93 3 -23 2 -36 -4 -33 -10 6 -11 -5 -9 -109 3 -157 2 -182 -4 -235 -5 -39
-4 -50 3 -37 6 9 13 49 16 87 3 38 9 67 13 65 4 -2 14 -44 24 -92 10 -48 22
-96 27 -105 5 -10 9 -28 9 -40 0 -13 5 -30 10 -38 8 -12 10 -12 10 5 0 11 -4
35 -9 53 -6 20 -6 32 0 32 5 0 9 -5 9 -11 0 -7 10 -9 25 -7 14 3 30 -1 36 -8
8 -10 8 -14 0 -14 -6 0 -11 5 -11 12 0 8 -6 6 -16 -4 -16 -15 -16 -19 2 -55
10 -21 19 -42 20 -48 1 -5 3 -14 4 -20 1 -5 1 -20 0 -32 -1 -13 1 -23 5 -23 6
0 22 38 23 54 0 5 6 13 14 18 10 8 10 11 0 15 -6 2 -9 9 -6 15 4 6 10 5 15 -3
10 -17 39 49 47 106 2 22 9 48 14 59 7 12 7 16 0 12 -5 -3 -13 21 -18 57 -4
34 -9 69 -10 77 -1 8 -4 39 -7 68 -10 99 -14 64 -13 -123 1 -102 -2 -185 -6
-185 -4 0 -5 -7 -2 -15 4 -8 1 -15 -5 -15 -6 0 -11 9 -11 19 0 11 -4 21 -9 23
-5 2 -12 50 -15 107 -9 157 -16 200 -32 194 -10 -3 -11 -9 -5 -17 12 -14 26
-256 14 -256 -15 1 -47 30 -40 36 4 4 13 2 20 -4 10 -9 14 -8 14 3 0 8 -6 15
-13 15 -14 0 -26 25 -29 65 -1 17 -5 54 -9 83 -4 34 -2 51 4 47 6 -3 10 -2 10
4 0 5 -4 11 -10 13 -5 2 -12 30 -14 63 -3 33 -8 69 -10 80 -2 11 -5 36 -6 55
-1 19 -4 29 -7 23 -8 -22 -23 -14 -23 13 0 14 4 23 10 19 6 -4 10 5 10 19 0
14 5 26 11 26 5 0 7 -4 4 -10 -3 -5 -2 -10 4 -10 20 0 21 19 1 25 -26 8 -41
-2 -33 -22 4 -10 2 -14 -4 -10 -12 8 -23 77 -12 77 4 0 10 -8 13 -17 2 -10 2
2 -1 27 -2 25 -9 52 -14 60 -7 10 -8 3 -4 -23 4 -23 2 -37 -3 -33 -5 3 -12 25
-16 48 -4 24 -9 54 -12 68 -3 14 -5 37 -5 53 2 34 -5 35 -13 2z m81 -367 c-3
-7 -5 -2 -5 12 0 14 2 19 5 13 2 -7 2 -19 0 -25z"/>
<path d="M5170 4525 c0 -14 4 -25 9 -25 4 0 6 11 3 25 -2 14 -6 25 -8 25 -2 0
-4 -11 -4 -25z"/>
<path d="M5193 4536 c3 -8 11 -33 17 -56 6 -23 13 -40 16 -38 5 6 -25 108 -32
108 -4 0 -4 -6 -1 -14z"/>
<path d="M4500 4530 c-9 -6 -10 -10 -3 -10 6 0 15 5 18 10 8 12 4 12 -15 0z"/>
<path d="M4420 4520 c0 -5 7 -7 15 -4 8 4 15 8 15 10 0 2 -7 4 -15 4 -8 0 -15
-4 -15 -10z"/>
<path d="M4100 4500 c0 -5 5 -10 10 -10 6 0 10 5 10 10 0 6 -4 10 -10 10 -5 0
-10 -4 -10 -10z"/>
<path d="M3253 4455 c-13 -24 -25 -63 -28 -87 -6 -49 -1 -41 38 65 29 76 23
88 -10 22z"/>
<path d="M5182 4465 c0 -16 2 -22 5 -12 2 9 2 23 0 30 -3 6 -5 -1 -5 -18z"/>
<path d="M4750 4455 c0 -8 4 -15 10 -15 5 0 7 7 4 15 -4 8 -8 15 -10 15 -2 0
-4 -7 -4 -15z"/>
<path d="M4315 4450 c-3 -5 -1 -10 4 -10 6 0 11 5 11 10 0 6 -2 10 -4 10 -3 0
-8 -4 -11 -10z"/>
<path d="M4977 4430 c19 -22 29 -19 20 5 -4 8 -13 15 -22 15 -13 0 -12 -3 2
-20z"/>
<path d="M4263 4418 c-2 -18 0 -20 7 -8 12 18 13 30 2 30 -4 0 -9 -10 -9 -22z"/>
<path d="M4501 4424 c0 -11 3 -14 6 -6 3 7 2 16 -1 19 -3 4 -6 -2 -5 -13z"/>
<path d="M3700 4421 c0 -5 5 -13 10 -16 6 -3 10 -2 10 4 0 5 -4 13 -10 16 -5
3 -10 2 -10 -4z"/>
<path d="M4805 4420 c-3 -5 -1 -10 4 -10 6 0 11 5 11 10 0 6 -2 10 -4 10 -3 0
-8 -4 -11 -10z"/>
<path d="M4925 4420 c-3 -5 -1 -10 4 -10 6 0 11 5 11 10 0 6 -2 10 -4 10 -3 0
-8 -4 -11 -10z"/>
<path d="M5153 4423 c-9 -3 -13 -27 -12 -76 1 -40 4 -62 6 -49 2 12 8 22 13
22 5 0 8 8 8 18 0 9 3 25 7 35 5 12 3 17 -9 17 -22 0 -20 18 2 22 9 2 13 6 7
9 -5 4 -16 4 -22 2z"/>
<path d="M5231 4404 c0 -11 3 -14 6 -6 3 7 2 16 -1 19 -3 4 -6 -2 -5 -13z"/>
<path d="M4290 4390 c0 -5 5 -10 10 -10 6 0 10 5 10 10 0 6 -4 10 -10 10 -5 0
-10 -4 -10 -10z"/>
<path d="M4221 4374 c0 -11 3 -14 6 -6 3 7 2 16 -1 19 -3 4 -6 -2 -5 -13z"/>
<path d="M5007 4373 c-10 -9 -8 -33 2 -33 5 0 11 9 14 20 5 20 -3 26 -16 13z"/>
<path d="M4837 4350 c-3 -11 -3 -20 -1 -20 2 0 8 9 14 20 6 11 7 20 2 20 -6 0
-12 -9 -15 -20z"/>
<path d="M4920 4360 c0 -5 5 -10 11 -10 5 0 7 5 4 10 -3 6 -8 10 -11 10 -2 0
-4 -4 -4 -10z"/>
<path d="M4466 4343 c-6 -14 -5 -15 5 -6 7 7 10 15 7 18 -3 3 -9 -2 -12 -12z"/>
<path d="M5037 4352 c6 -4 13 -21 15 -37 2 -25 7 -29 26 -27 14 2 22 -2 22
-12 0 -8 4 -17 9 -20 10 -7 9 6 -3 42 -4 13 -14 21 -24 20 -9 -2 -17 3 -18 10
-1 6 -2 17 -3 22 0 6 -9 10 -18 10 -12 0 -14 -3 -6 -8z"/>
<path d="M5241 4355 c0 -5 6 -37 14 -70 l14 -60 -6 55 c-4 46 -23 107 -22 75z"/>
<path d="M3685 4287 c-4 -35 -5 -73 -3 -83 2 -10 7 16 12 60 4 43 5 80 2 83
-2 2 -7 -24 -11 -60z"/>
<path d="M5731 4334 c0 -11 3 -14 6 -6 3 7 2 16 -1 19 -3 4 -6 -2 -5 -13z"/>
<path d="M5000 4308 c0 -16 3 -28 8 -28 4 0 7 -23 6 -51 0 -28 5 -61 11 -72 6
-12 10 -34 8 -49 -1 -16 3 -28 8 -28 6 0 7 -4 4 -10 -3 -5 0 -10 9 -10 15 0
16 16 2 39 -7 11 -5 13 7 8 24 -9 21 6 -3 21 -15 9 -19 19 -14 36 3 15 -1 29
-11 40 -13 12 -14 20 -6 30 8 10 6 24 -9 57 -18 39 -20 41 -20 17z"/>
<path d="M5192 4290 c0 -14 2 -19 5 -12 2 6 2 18 0 25 -3 6 -5 1 -5 -13z"/>
<path d="M4410 4281 c0 -10 19 -25 25 -20 1 2 -3 10 -11 17 -8 7 -14 8 -14 3z"/>
<path d="M5063 4256 c0 -8 6 -12 14 -9 7 3 13 9 13 14 0 5 -6 9 -13 9 -8 0
-14 -6 -14 -14z"/>
<path d="M5145 4243 c11 -45 24 -133 30 -207 3 -39 8 -72 12 -75 3 -4 2 35 -2
84 -14 173 -14 192 -5 165 8 -24 8 -24 9 -2 1 12 -6 25 -15 29 -8 3 -13 12
-10 19 3 8 -1 14 -10 14 -13 0 -15 -6 -9 -27z"/>
<path d="M4392 4245 c15 -16 20 -17 30 -6 11 11 10 13 0 7 -7 -4 -21 -2 -30 5
-15 12 -15 11 0 -6z"/>
<path d="M5201 4244 c0 -11 3 -14 6 -6 3 7 2 16 -1 19 -3 4 -6 -2 -5 -13z"/>
<path d="M5084 4223 c-3 -10 -10 -26 -15 -36 -5 -9 -6 -17 -2 -16 25 4 34 -3
28 -21 -3 -11 -1 -28 5 -37 9 -15 10 -10 8 25 -2 23 0 42 4 42 5 0 8 14 8 30
0 33 -27 43 -36 13z"/>
<path d="M4945 4203 c4 -26 1 -33 -13 -33 -16 -1 -16 -1 1 -11 11 -7 17 -22
17 -49 0 -22 4 -40 10 -40 11 0 3 97 -11 139 -8 23 -8 22 -4 -6z"/>
<path d="M4677 4200 c3 -11 9 -20 15 -20 5 0 4 9 -2 20 -6 11 -12 20 -14 20
-2 0 -2 -9 1 -20z"/>
<path d="M5200 4203 c0 -5 5 -15 10 -23 8 -12 10 -11 10 8 0 12 -4 22 -10 22
-5 0 -10 -3 -10 -7z"/>
<path d="M4400 4190 c-12 -8 -10 -10 8 -10 13 0 20 4 17 10 -7 12 -6 12 -25 0z"/>
<path d="M5131 4164 c0 -11 3 -14 6 -6 3 7 2 16 -1 19 -3 4 -6 -2 -5 -13z"/>
<path d="M3673 4095 c0 -44 2 -61 4 -37 2 23 2 59 0 80 -2 20 -4 1 -4 -43z"/>
<path d="M4672 4161 c-11 -7 -11 -9 0 -13 17 -6 38 1 38 13 0 11 -21 11 -38 0z"/>
<path d="M2903 4120 c0 -25 2 -35 4 -22 2 12 2 32 0 45 -2 12 -4 2 -4 -23z"/>
<path d="M5190 4148 c0 -11 8 -18 20 -18 12 0 20 7 20 18 0 14 -2 15 -10 2 -9
-13 -11 -13 -20 0 -8 13 -10 12 -10 -2z"/>
<path d="M5141 4123 c-1 -13 -5 -23 -10 -23 -5 0 -11 -20 -12 -44 -2 -24 -1
-44 2 -43 4 1 7 -2 7 -8 0 -5 -4 -9 -10 -7 -5 1 -7 -2 -3 -8 3 -5 13 -10 21
-10 8 0 12 5 9 10 -3 6 -2 10 3 10 5 0 9 7 9 15 0 8 -4 12 -8 10 -12 -8 -18
36 -7 65 5 16 8 35 5 42 -3 7 -6 3 -6 -9z"/>
<path d="M5190 4110 c0 -5 5 -10 10 -10 6 0 10 5 10 10 0 6 -4 10 -10 10 -5 0
-10 -4 -10 -10z"/>
<path d="M5682 4069 c-13 -23 -21 -44 -19 -46 4 -3 57 72 57 82 0 17 -19 -1
-38 -36z"/>
<path d="M5087 4075 c-4 -8 -2 -17 3 -20 6 -4 10 3 10 14 0 25 -6 27 -13 6z"/>
<path d="M1967 4073 c-4 -6 6 -49 22 -95 73 -210 81 -242 64 -260 -9 -10 -19
-15 -23 -13 -5 3 -10 2 -12 -2 -1 -5 -29 -21 -60 -37 -32 -15 -55 -33 -52 -38
4 -6 9 -6 14 2 4 6 10 11 14 11 3 -1 34 13 69 31 67 34 71 35 133 12 35 -12
41 -19 42 -44 0 -17 -3 -28 -8 -25 -4 2 -14 -3 -21 -13 -13 -15 -12 -16 3 -4
15 12 17 11 15 -7 0 -11 -4 -18 -8 -15 -4 2 -10 0 -14 -6 -4 -6 -12 -4 -22 5
-14 14 -17 14 -33 0 -16 -15 -28 -15 -86 -6 -67 10 -106 5 -67 -10 25 -9 133
-24 151 -20 9 1 12 -4 8 -16 -18 -62 -27 -115 -22 -128 5 -13 1 -15 -17 -9
-21 6 -21 6 -5 -12 11 -13 18 -41 20 -79 3 -55 4 -50 16 55 7 63 15 126 19
140 l6 25 7 -26 c4 -15 13 -73 20 -130 12 -109 15 -119 31 -119 21 0 134 289
125 318 -8 23 -65 82 -80 82 -7 0 -7 -3 -1 -8 6 -4 23 -26 39 -49 l29 -43 -23
-62 c-37 -105 -82 -208 -90 -208 -4 0 -13 56 -20 125 -14 135 -12 143 42 196
13 12 16 18 8 14 -12 -7 -13 -6 -4 6 6 8 10 27 10 43 -1 22 -7 31 -26 36 -88
26 -110 34 -102 42 4 4 38 -2 75 -14 37 -11 70 -18 73 -15 10 10 13 57 4 57
-5 0 -11 15 -13 33 -3 24 -4 20 -5 -17 -2 -47 -2 -48 -29 -41 -16 3 -46 15
-69 24 -37 17 -42 23 -58 82 -29 106 -82 243 -89 232z"/>
<path d="M2020 4071 c0 -5 5 -13 10 -16 6 -3 10 -2 10 4 0 5 -4 13 -10 16 -5
3 -10 2 -10 -4z"/>
<path d="M5151 4064 c0 -11 3 -14 6 -6 3 7 2 16 -1 19 -3 4 -6 -2 -5 -13z"/>
<path d="M5202 4055 c0 -16 2 -22 5 -12 2 9 2 23 0 30 -3 6 -5 -1 -5 -18z"/>
<path d="M4908 4064 c-8 -7 2 -44 12 -44 4 0 5 11 2 25 -5 27 -6 28 -14 19z"/>
<path d="M2044 4038 c-4 -7 -3 -10 1 -5 5 4 20 -3 34 -15 l26 -23 -24 28 c-28
31 -28 31 -37 15z"/>
<path d="M4865 4039 c-11 -16 -1 -19 13 -3 7 8 8 14 3 14 -5 0 -13 -5 -16 -11z"/>
<path d="M5046 4032 c-1 -4 0 -43 3 -87 l7 -80 11 55 c21 102 21 108 1 113
-10 3 -20 2 -22 -1z"/>
<path d="M5213 3980 c0 -25 2 -35 4 -22 2 12 2 32 0 45 -2 12 -4 2 -4 -23z"/>
<path d="M2652 3908 c-12 -46 -27 -108 -33 -138 -6 -30 -18 -87 -26 -126 -8
-39 -13 -79 -11 -90 3 -10 9 5 13 34 5 34 16 61 28 73 12 10 15 19 9 19 -17 0
-15 25 4 41 8 7 13 21 11 31 -3 10 -1 18 4 18 5 0 7 11 3 25 -3 14 -2 31 4 38
8 10 24 157 17 157 -1 0 -12 -37 -23 -82z"/>
<path d="M5100 3961 c0 -14 5 -19 15 -14 17 6 15 25 -3 31 -7 2 -12 -5 -12
-17z"/>
<path d="M5141 3954 c0 -11 3 -14 6 -6 3 7 2 16 -1 19 -3 4 -6 -2 -5 -13z"/>
<path d="M2372 3922 c-40 -21 -81 -45 -91 -54 -18 -15 -22 -14 -59 22 -22 22
-37 42 -34 45 3 3 0 5 -6 5 -5 0 -19 3 -29 6 -10 4 3 -15 29 -42 39 -41 47
-57 51 -94 l4 -45 1 43 c1 23 7 42 12 42 7 0 8 -27 4 -79 -4 -43 -3 -81 2 -83
13 -8 54 9 54 22 0 6 -10 8 -25 4 l-25 -6 6 58 c4 33 11 67 15 76 9 17 139 91
147 83 3 -3 -5 -37 -17 -77 -13 -40 -25 -81 -28 -91 -3 -10 -18 -23 -34 -29
-17 -6 -28 -12 -26 -14 2 -3 16 0 31 5 20 8 26 7 26 -3 0 -7 -20 -19 -44 -26
-81 -23 -90 -53 -34 -118 23 -28 33 -32 75 -31 26 0 68 4 93 9 38 6 31 8 -44
7 l-90 0 -28 34 c-16 19 -27 40 -26 47 2 7 28 24 60 39 l56 25 76 -63 c42 -35
76 -67 76 -72 0 -4 5 -5 10 -2 14 9 12 25 -2 25 -7 0 -42 27 -78 60 -36 33
-71 60 -77 60 -16 0 -17 24 -3 50 15 27 59 200 51 200 -3 0 -39 -17 -79 -38z"/>
<path d="M5006 3938 c3 -4 11 -5 19 -1 21 7 19 12 -4 10 -11 0 -18 -5 -15 -9z"/>
<path d="M5146 3863 c7 -91 14 -93 14 -5 0 40 -4 72 -9 72 -5 0 -7 -29 -5 -67z"/>
<path d="M5210 3914 c0 -8 5 -12 10 -9 6 4 8 11 5 16 -9 14 -15 11 -15 -7z"/>
<path d="M4850 3890 c0 -5 5 -10 11 -10 5 0 7 5 4 10 -3 6 -8 10 -11 10 -2 0
-4 -4 -4 -10z"/>
<path d="M3155 3860 c-3 -5 -1 -10 4 -10 6 0 11 5 11 10 0 6 -2 10 -4 10 -3 0
-8 -4 -11 -10z"/>
<path d="M3402 3850 c0 -14 2 -19 5 -12 2 6 2 18 0 25 -3 6 -5 1 -5 -13z"/>
<path d="M4881 3804 c0 -11 3 -14 6 -6 3 7 2 16 -1 19 -3 4 -6 -2 -5 -13z"/>
<path d="M4571 3764 c0 -11 3 -14 6 -6 3 7 2 16 -1 19 -3 4 -6 -2 -5 -13z"/>
<path d="M5160 3740 c0 -22 3 -40 8 -40 4 0 6 18 4 40 -2 22 -6 40 -8 40 -2 0
-4 -18 -4 -40z"/>
<path d="M5141 3694 c0 -11 3 -14 6 -6 3 7 2 16 -1 19 -3 4 -6 -2 -5 -13z"/>
<path d="M4561 3674 c0 -11 3 -14 6 -6 3 7 2 16 -1 19 -3 4 -6 -2 -5 -13z"/>
<path d="M5172 3670 c0 -14 2 -19 5 -12 2 6 2 18 0 25 -3 6 -5 1 -5 -13z"/>
<path d="M5152 3620 c0 -14 2 -19 5 -12 2 6 2 18 0 25 -3 6 -5 1 -5 -13z"/>
<path d="M2706 3605 c5 -11 44 -28 50 -22 2 1 -10 10 -26 19 -21 12 -27 13
-24 3z"/>
<path d="M4832 3555 c0 -33 4 -71 8 -85 6 -18 8 -7 8 40 0 36 -3 74 -8 85 -6
14 -9 2 -8 -40z"/>
<path d="M1841 3584 c0 -11 3 -14 6 -6 3 7 2 16 -1 19 -3 4 -6 -2 -5 -13z"/>
<path d="M2774 3571 c4 -6 14 -11 22 -11 8 0 14 -4 14 -10 0 -13 -6 -13 -30 0
-14 8 -33 2 -82 -25 -90 -50 -117 -85 -117 -149 0 -28 -5 -75 -10 -105 -8 -37
-8 -58 0 -70 9 -13 10 -12 5 7 -6 33 17 93 56 146 27 36 43 47 90 60 80 22 84
21 43 -15 -51 -45 -87 -120 -65 -134 21 -13 59 7 65 35 5 24 13 30 48 35 32 6
44 4 51 -8 8 -13 14 -13 42 -1 33 14 64 10 64 -7 0 -5 3 -8 8 -8 39 6 50 -2
49 -36 -1 -19 -6 -35 -11 -35 -6 0 -4 -5 4 -10 12 -8 13 -13 3 -29 -10 -16 -9
-20 2 -25 14 -5 20 12 17 54 0 10 5 8 18 -7 21 -27 30 -29 30 -8 0 27 28 16
39 -15 15 -44 32 -37 29 11 -2 39 -3 40 -30 35 -38 -8 -45 12 -9 27 l30 13
-19 42 -19 42 41 -22 c22 -13 65 -47 94 -75 30 -29 57 -53 61 -53 5 0 3 4 -2
8 -6 4 -22 23 -35 42 -14 19 -32 44 -42 54 -13 15 -15 23 -7 33 9 10 7 13 -9
13 -12 0 -24 5 -27 10 -3 6 2 10 12 10 12 0 14 3 6 8 -7 5 -9 13 -3 21 7 12
13 12 37 -3 19 -12 16 -7 -12 18 -36 32 -170 108 -199 112 -6 1 -58 7 -116 13
-58 7 -113 15 -124 18 -12 3 -16 1 -12 -6z m145 -93 c1 -5 -6 -8 -14 -8 -18 0
-56 40 -49 52 6 9 62 -31 63 -44z m1 37 c9 -11 15 -12 20 -5 5 7 11 6 20 -5
11 -13 10 -15 -6 -9 -16 6 -15 2 6 -21 19 -21 13 -19 -22 10 -27 22 -48 41
-48 42 0 9 19 1 30 -12z m-230 -19 c0 -2 -7 -7 -16 -10 -8 -3 -12 -2 -9 4 6
10 25 14 25 6z m69 -25 c21 -16 21 -19 6 -24 -9 -4 -21 -5 -26 -1 -5 3 -9 1
-9 -4 0 -6 -7 -13 -16 -16 -9 -4 -13 -2 -8 5 5 8 1 8 -13 0 -15 -7 -25 -7 -38
3 -18 13 -18 14 3 20 12 4 22 11 22 16 0 8 20 16 45 19 6 0 21 -8 34 -18z
m242 -8 c13 -16 12 -17 -3 -4 -10 7 -18 15 -18 17 0 8 8 3 21 -13z m59 -14 c0
-14 -16 -11 -29 5 -10 12 -8 13 8 9 12 -3 21 -9 21 -14z m133 -5 c3 -3 3 -12
0 -20 -6 -16 -49 -19 -58 -4 -4 6 5 10 20 10 15 0 24 4 20 10 -7 11 8 14 18 4z
m-213 -34 c35 -9 38 -13 31 -33 -7 -17 -15 -21 -37 -19 -16 2 -31 8 -35 13 -3
6 -16 6 -33 -1 -40 -15 -53 -12 -59 12 -3 12 -4 24 -2 27 6 11 95 12 135 1z"/>
<path d="M2918 3398 c5 -5 16 -8 23 -6 8 3 3 7 -10 11 -17 4 -21 3 -13 -5z"/>
<path d="M4305 3540 c-3 -5 -2 -10 4 -10 5 0 13 5 16 10 3 6 2 10 -4 10 -5 0
-13 -4 -16 -10z"/>
<path d="M4416 3531 c-3 -5 1 -12 10 -15 10 -4 13 -2 8 6 -5 7 0 9 14 6 12 -4
22 -2 22 3 0 12 -47 12 -54 0z"/>
<path d="M2569 3488 c-3 -22 -1 -34 4 -29 5 5 7 21 5 37 -3 27 -4 26 -9 -8z"/>
<path d="M4515 3510 c3 -5 8 -10 11 -10 2 0 4 5 4 10 0 6 -5 10 -11 10 -5 0
-7 -4 -4 -10z"/>
<path d="M5172 3500 c0 -14 2 -19 5 -12 2 6 2 18 0 25 -3 6 -5 1 -5 -13z"/>
<path d="M4735 3430 c3 -5 10 -10 16 -10 5 0 9 5 9 10 0 6 -7 10 -16 10 -8 0
-12 -4 -9 -10z"/>
<path d="M4849 3438 c-4 -7 -8 -61 -12 -146 -2 -50 -7 -95 -10 -99 -4 -3 -7
-18 -7 -32 0 -40 -37 -165 -61 -205 l-21 -36 -29 21 c-25 17 -109 128 -109
142 0 3 14 14 31 25 l30 19 -66 6 c-64 6 -69 5 -103 -23 -20 -17 -45 -30 -55
-30 -18 0 -18 2 2 36 12 19 21 39 21 43 0 5 -19 12 -42 17 -33 7 -42 14 -40
27 3 20 -9 22 -26 5 -6 -6 -38 -15 -69 -19 -62 -7 -186 -50 -166 -56 7 -2 9
-12 6 -21 -6 -18 -43 -57 -43 -47 0 7 -13 -6 -45 -45 -20 -24 -20 -24 28 4 53
30 61 23 18 -18 -25 -24 -47 -74 -42 -98 0 -5 -3 -8 -7 -8 -5 0 -9 -7 -9 -15
0 -8 4 -15 9 -15 4 0 8 7 8 15 0 8 5 15 10 15 6 0 10 14 10 31 0 19 4 28 11
23 6 -3 26 9 45 27 18 18 37 30 40 26 4 -4 13 1 20 11 12 16 14 16 29 -3 16
-20 16 -19 5 3 -10 20 -8 24 24 37 48 20 69 19 91 -5 18 -19 17 -21 -4 -39
-26 -23 -24 -57 3 -54 14 1 16 -4 12 -22 -7 -28 9 -42 28 -26 22 18 49 -33 43
-79 -10 -74 10 -62 32 19 12 45 20 85 17 90 -3 4 -16 6 -30 4 -36 -7 -40 14
-5 26 26 9 29 14 24 33 -4 13 -12 29 -17 36 -29 35 45 -6 105 -59 32 -28 39
-42 44 -84 5 -51 -10 -97 -62 -180 -17 -28 42 30 143 139 42 45 62 57 62 35 0
-7 11 0 25 15 14 15 25 29 25 32 0 6 47 72 63 89 6 6 7 -5 4 -30 -4 -23 -3
-34 2 -25 16 28 33 121 29 150 -3 17 -1 30 3 30 16 0 17 41 0 49 -12 7 -16 21
-15 58 5 140 4 183 -3 183 -1 0 -4 -1 -4 -2z m-443 -310 c4 -6 3 -8 -4 -4 -6
3 -13 2 -17 -4 -3 -5 -11 -10 -17 -10 -7 0 -6 6 2 15 15 18 26 19 36 3z m-68
-14 c-9 -9 -22 -14 -30 -11 -8 3 -4 8 12 15 35 15 37 14 18 -4z m39 -139 c-11
-7 -26 -11 -35 -7 -15 6 0 12 48 20 3 1 -3 -5 -13 -13z m251 -2 c-10 -2 -28
-2 -40 0 -13 2 -5 4 17 4 22 1 32 -1 23 -4z m28 -22 c-3 -5 -17 -11 -30 -13
-17 -4 -23 -1 -19 9 3 7 16 13 30 13 13 0 22 -4 19 -9z m9 -32 c9 -13 5 -17
-27 -23 -24 -4 -28 2 -19 32 3 7 41 0 46 -9z"/>
<path d="M1965 3413 c-11 -3 -24 -9 -30 -15 -13 -12 46 1 60 13 10 10 4 10
-30 2z"/>
<path d="M2561 3394 c0 -11 3 -14 6 -6 3 7 2 16 -1 19 -3 4 -6 -2 -5 -13z"/>
<path d="M4079 3343 c-13 -16 -12 -17 4 -4 16 13 21 21 13 21 -2 0 -10 -8 -17
-17z"/>
<path d="M2803 3277 c-2 -14 3 -16 19 -11 20 6 21 3 15 -41 -8 -80 20 -125 79
-125 15 0 54 78 54 108 0 9 -10 31 -22 49 -19 29 -28 33 -51 29 -15 -3 -26 -2
-23 2 2 4 -12 7 -33 7 -29 0 -37 -4 -38 -18z m117 -31 c0 -2 -7 -7 -16 -10 -8
-3 -12 -2 -9 4 6 10 25 14 25 6z m-19 -49 c-13 -13 -26 -3 -16 12 3 6 11 8 17
5 6 -4 6 -10 -1 -17z m32 -13 c-7 -3 -9 -13 -6 -22 5 -13 3 -14 -7 -5 -7 6
-19 9 -26 6 -8 -3 -14 0 -14 5 0 11 22 19 50 20 9 0 10 -2 3 -4z"/>
<path d="M2693 3243 c-7 -3 -12 -17 -12 -31 1 -21 2 -23 6 -7 3 11 10 23 16
27 14 9 6 17 -10 11z"/>
<path d="M1741 3150 c-2 -81 59 -363 75 -347 2 2 1 15 -4 28 -5 13 -10 47 -10
74 -1 50 -1 50 14 23 23 -44 25 -33 3 29 -11 34 -19 83 -19 125 0 39 -4 67 -9
64 -5 -4 -12 0 -15 6 -3 7 -3 3 -1 -9 3 -12 1 -24 -4 -27 -5 -4 -14 13 -19 36
l-10 43 -1 -45z m34 -60 c3 -5 1 -10 -4 -10 -6 0 -11 5 -11 10 0 6 2 10 4 10
3 0 8 -4 11 -10z"/>
<path d="M2192 3135 c-1 -27 -5 -61 -8 -75 -5 -21 -4 -22 6 -7 6 9 9 43 7 75
l-3 57 -2 -50z"/>
<path d="M2572 3100 c0 -14 2 -19 5 -12 2 6 2 18 0 25 -3 6 -5 1 -5 -13z"/>
<path d="M4270 3035 c-8 -9 -8 -15 -2 -15 12 0 26 19 19 26 -2 2 -10 -2 -17
-11z"/>
<path d="M5067 3003 c-4 -3 -7 -11 -7 -17 0 -6 5 -5 12 2 6 6 9 14 7 17 -3 3
-9 2 -12 -2z"/>
<path d="M4182 2913 c-42 -21 -56 -46 -49 -96 9 -65 50 -76 98 -27 17 16 28
34 24 39 -3 5 -1 12 4 15 12 8 -4 67 -21 78 -17 10 -18 10 -56 -9z"/>
<path d="M4814 2876 c-3 -8 -4 -23 -2 -33 3 -11 6 -6 9 15 6 34 2 42 -7 18z"/>
<path d="M4672 2818 c-18 -28 -31 -52 -29 -54 2 -3 19 18 37 46 42 66 35 72
-8 8z"/>
<path d="M2481 2804 c0 -11 3 -14 6 -6 3 7 2 16 -1 19 -3 4 -6 -2 -5 -13z"/>
<path d="M4790 2780 c-6 -23 -9 -47 -7 -53 2 -6 9 10 16 37 6 27 10 51 7 53
-3 3 -10 -14 -16 -37z"/>
<path d="M1916 2765 c4 -8 11 -15 16 -15 6 0 5 6 -2 15 -7 8 -14 15 -16 15 -2
0 -1 -7 2 -15z"/>
<path d="M2496 2735 c4 -27 10 -54 15 -59 5 -6 10 -21 10 -35 1 -15 3 -19 6
-10 2 9 -5 47 -16 85 -20 66 -20 67 -15 19z"/>
<path d="M5530 2761 c0 -11 4 -22 9 -25 4 -3 6 6 3 19 -5 30 -12 33 -12 6z"/>
<path d="M2271 2754 c0 -11 3 -14 6 -6 3 7 2 16 -1 19 -3 4 -6 -2 -5 -13z"/>
<path d="M4616 2728 c-20 -31 -112 -227 -120 -258 -7 -24 100 180 129 248 16
37 12 42 -9 10z"/>
<path d="M1811 2705 c-2 -16 72 -305 76 -301 8 8 -27 171 -51 241 -14 39 -25
66 -25 60z"/>
<path d="M1970 2704 c0 -17 95 -109 125 -122 l30 -12 -30 26 c-16 14 -51 46
-77 71 -27 26 -48 42 -48 37z"/>
<path d="M5044 2614 c-8 -20 -13 -39 -10 -41 5 -5 12 10 31 65 10 29 -7 9 -21
-24z"/>
<path d="M5156 2593 c-6 -14 -5 -15 5 -6 7 7 10 15 7 18 -3 3 -9 -2 -12 -12z"/>
<path d="M5161 2554 c0 -11 3 -14 6 -6 3 7 2 16 -1 19 -3 4 -6 -2 -5 -13z"/>
<path d="M5016 2545 c-9 -26 -7 -32 5 -12 6 10 9 21 6 23 -2 3 -7 -2 -11 -11z"/>
<path d="M5236 2519 c-8 -43 -8 -51 5 -44 5 4 8 12 6 18 -2 7 3 17 11 23 8 6
12 16 8 22 -12 20 -23 13 -30 -19z"/>
<path d="M2380 2516 c0 -2 8 -10 18 -17 15 -13 16 -12 3 4 -13 16 -21 21 -21
13z"/>
<path d="M2041 2484 c0 -11 3 -14 6 -6 3 7 2 16 -1 19 -3 4 -6 -2 -5 -13z"/>
<path d="M2231 2484 c0 -11 3 -14 6 -6 3 7 2 16 -1 19 -3 4 -6 -2 -5 -13z"/>
<path d="M5590 2490 c0 -8 5 -22 10 -30 9 -13 10 -13 10 0 0 8 -5 22 -10 30
-9 13 -10 13 -10 0z"/>
<path d="M2241 2429 c-1 -20 6 -52 14 -70 18 -42 18 -32 0 46 -12 52 -13 55
-14 24z"/>
<path d="M5220 2428 c0 -19 2 -20 10 -8 13 19 13 30 0 30 -5 0 -10 -10 -10
-22z"/>
<path d="M2657 2385 c3 -16 12 -36 20 -43 18 -19 16 -3 -7 38 -20 35 -20 35
-13 5z"/>
<path d="M4905 2353 c-22 -31 -50 -66 -62 -79 -19 -21 -18 -36 1 -16 4 4 13 7
19 7 12 0 93 132 86 139 -2 2 -22 -21 -44 -51z"/>
<path d="M4456 2385 c-9 -26 -7 -32 5 -12 6 10 9 21 6 23 -2 3 -7 -2 -11 -11z"/>
<path d="M5603 2363 c2 -10 14 -35 27 -56 17 -29 25 -35 32 -25 7 10 8 8 4 -5
-7 -22 32 -87 86 -142 l39 -40 -40 61 c-21 33 -52 89 -67 123 -21 47 -30 58
-35 45 -5 -15 -9 -12 -24 19 -19 40 -27 47 -22 20z"/>
<path d="M5112 2340 c-18 -29 -15 -38 4 -12 9 13 14 25 12 27 -2 2 -9 -5 -16
-15z"/>
<path d="M5220 2340 c-8 -5 -12 -12 -9 -15 4 -3 12 1 19 10 14 17 11 19 -10 5z"/>
<path d="M2270 2303 c0 -13 5 -23 10 -23 13 0 13 11 0 30 -8 12 -10 11 -10 -7z"/>
<path d="M5059 2253 c-13 -16 -12 -17 4 -4 9 7 17 15 17 17 0 8 -8 3 -21 -13z"/>
<path d="M5170 2266 c0 -2 7 -7 16 -10 8 -3 12 -2 9 4 -6 10 -25 14 -25 6z"/>
<path d="M2721 2225 c0 -11 7 -36 15 -55 l14 -35 -6 40 c-7 46 -24 83 -23 50z"/>
<path d="M5170 2220 c0 -11 2 -20 4 -20 2 0 6 9 9 20 3 11 1 20 -4 20 -5 0 -9
-9 -9 -20z"/>
<path d="M4827 2209 c-9 -12 -17 -16 -20 -9 -4 7 -5 7 -3 0 3 -19 18 -16 34 8
18 28 8 29 -11 1z"/>
<path d="M2261 2194 c0 -11 3 -14 6 -6 3 7 2 16 -1 19 -3 4 -6 -2 -5 -13z"/>
<path d="M2311 2194 c0 -11 3 -14 6 -6 3 7 2 16 -1 19 -3 4 -6 -2 -5 -13z"/>
<path d="M4980 2165 c-13 -14 -29 -25 -37 -25 -7 0 -13 -4 -13 -10 0 -12 20
-13 38 -1 12 7 45 61 38 61 -1 0 -13 -11 -26 -25z"/>
<path d="M5160 2180 c0 -5 5 -10 11 -10 5 0 7 5 4 10 -3 6 -8 10 -11 10 -2 0
-4 -4 -4 -10z"/>
<path d="M2321 2165 c1 -19 18 -51 18 -35 0 8 -4 22 -9 30 -5 8 -9 11 -9 5z"/>
<path d="M4315 2134 c-15 -19 -25 -37 -22 -40 2 -2 16 14 31 36 33 50 28 52
-9 4z"/>
<path d="M4774 2150 c0 -13 4 -16 10 -10 7 7 7 13 0 20 -6 6 -10 3 -10 -10z"/>
<path d="M4910 2149 c0 -5 5 -7 10 -4 6 3 10 8 10 11 0 2 -4 4 -10 4 -5 0 -10
-5 -10 -11z"/>
<path d="M5161 2144 c0 -11 3 -14 6 -6 3 7 2 16 -1 19 -3 4 -6 -2 -5 -13z"/>
<path d="M4710 2140 c0 -5 5 -10 11 -10 5 0 7 5 4 10 -3 6 -8 10 -11 10 -2 0
-4 -4 -4 -10z"/>
<path d="M4600 2120 c-12 -7 -10 -9 8 -7 12 0 22 5 22 9 0 11 -12 10 -30 -2z"/>
<path d="M4669 2103 c-13 -16 -12 -17 4 -4 16 13 21 21 13 21 -2 0 -10 -8 -17
-17z"/>
<path d="M5245 2110 c3 -5 8 -10 11 -10 2 0 4 5 4 10 0 6 -5 10 -11 10 -5 0
-7 -4 -4 -10z"/>
<path d="M2346 2090 c4 -14 13 -38 20 -55 11 -24 13 -25 8 -5 -4 14 -13 39
-20 55 -11 24 -13 25 -8 5z"/>
<path d="M4930 2066 c0 -13 -3 -33 -6 -43 -4 -14 -4 -15 4 -3 15 25 23 70 12
70 -5 0 -10 -11 -10 -24z"/>
<path d="M4699 2063 c-13 -16 -12 -17 4 -4 16 13 21 21 13 21 -2 0 -10 -8 -17
-17z"/>
<path d="M5203 2067 c5 -15 29 -16 34 -2 2 6 -6 11 -18 12 -12 1 -19 -3 -16
-10z"/>
<path d="M5260 2070 c19 -13 30 -13 30 0 0 6 -10 10 -22 10 -19 0 -20 -2 -8
-10z"/>
<path d="M2771 2041 c-1 -18 29 -134 38 -146 4 -5 13 -29 20 -53 6 -23 16 -40
21 -37 5 3 7 12 3 20 -3 8 -2 15 2 15 10 0 131 -68 195 -109 89 -57 94 -61
120 -73 14 -7 47 -26 73 -42 51 -30 66 -30 156 6 15 5 28 5 33 0 12 -12 6
-122 -12 -250 -10 -72 -11 -104 -2 -142 10 -44 9 -57 -8 -99 -26 -68 -72 -151
-83 -151 -4 0 -6 -4 -3 -9 3 -5 -3 -19 -13 -32 -10 -13 -26 -39 -36 -58 l-17
-34 -25 44 c-29 52 -105 132 -150 159 -38 23 -38 26 -18 -95 8 -49 15 -110 15
-134 0 -34 6 -49 26 -68 28 -26 28 -48 -2 -48 -15 0 -22 -13 -34 -76 -13 -60
-13 -76 -3 -72 7 3 11 10 10 15 -1 6 9 12 22 13 14 1 27 7 29 14 2 6 13 16 25
22 16 8 12 1 -12 -24 -19 -20 -38 -34 -43 -31 -4 3 -8 1 -8 -5 0 -6 -15 -18
-32 -27 -18 -10 -45 -31 -60 -47 -23 -28 -27 -42 -33 -131 -6 -105 -30 -258
-44 -285 -5 -9 -11 -29 -15 -44 -6 -26 -5 -28 20 -25 25 3 30 14 101 228 42
124 82 233 91 243 8 9 20 27 26 39 20 40 33 30 61 -44 15 -40 40 -102 55 -138
32 -76 29 -88 -33 -127 -49 -30 -216 -163 -236 -187 -12 -14 -10 -16 22 -16
28 0 42 8 75 44 22 24 47 57 56 74 17 34 80 77 100 69 12 -5 28 -57 52 -162 3
-17 9 -24 11 -17 3 7 -7 53 -21 103 l-26 90 22 29 c12 17 25 30 28 30 12 0 70
-47 90 -73 16 -20 20 -42 22 -109 l2 -83 3 75 c2 41 5 85 8 98 7 27 17 23 92
-40 91 -76 125 -102 150 -115 20 -10 133 -13 509 -13 266 0 484 2 484 4 0 8
-30 133 -36 153 -5 15 -4 16 5 3 8 -11 11 -12 11 -2 0 7 5 10 10 7 6 -3 10 -1
10 4 0 6 -4 11 -10 11 -5 0 -10 8 -10 18 0 10 -9 28 -21 40 -11 12 -17 27 -13
34 4 6 3 8 -3 5 -11 -7 -28 22 -18 31 3 3 5 1 5 -5 0 -6 12 -13 26 -16 18 -3
22 -1 15 6 -23 23 -11 34 39 34 28 0 50 -4 50 -9 0 -4 -5 -8 -12 -8 -6 0 -9
-3 -5 -6 3 -3 13 -2 23 4 11 6 13 11 5 16 -6 4 -11 17 -11 30 0 12 -3 25 -6
28 -7 7 -64 -24 -64 -34 0 -19 -21 -5 -31 19 -7 20 -6 28 3 35 9 5 6 8 -9 8
-12 0 -29 -7 -37 -16 -15 -14 -16 -14 -16 0 0 9 5 16 10 16 6 0 10 7 10 16 0
8 4 13 9 10 4 -3 8 7 7 22 -1 18 -10 33 -28 44 -28 18 -64 75 -54 86 3 3 6 0
6 -6 0 -9 5 -9 19 0 11 6 17 18 14 27 -3 9 9 0 26 -19 17 -19 36 -34 41 -32 6
1 10 -2 10 -8 0 -5 -7 -10 -15 -10 -22 0 -18 -17 5 -23 17 -4 20 0 20 28 0 23
5 34 18 37 28 7 40 -1 36 -25 -2 -12 -1 -16 2 -8 5 11 11 8 25 -10 20 -26 26
-10 8 23 -6 11 -13 39 -16 62 -2 22 -9 46 -15 53 -5 7 -6 18 -2 24 5 9 2 10
-9 6 -10 -4 -20 0 -26 11 -13 25 -23 140 -21 257 0 55 -2 96 -6 93 -3 -4 -15
2 -27 12 -11 11 -23 17 -26 14 -3 -3 3 -12 14 -21 19 -15 19 -15 -4 -8 -16 5
-21 4 -17 -4 4 -6 13 -11 19 -11 27 0 40 -17 28 -36 -6 -11 -11 -15 -11 -10 0
5 -9 1 -20 -9 -11 -10 -17 -21 -15 -25 3 -4 7 -33 9 -64 3 -42 9 -62 25 -75
25 -21 27 -33 6 -25 -9 4 -15 0 -15 -10 0 -9 8 -16 20 -16 11 0 20 -4 20 -10
0 -5 -11 -10 -24 -10 -13 0 -27 -7 -30 -16 -5 -14 -4 -15 9 -4 9 7 15 8 15 2
0 -6 6 -12 13 -15 6 -2 4 -3 -6 -1 -10 1 -27 -6 -38 -17 -10 -10 -29 -19 -40
-19 -18 0 -20 2 -9 15 11 13 15 13 22 3 7 -9 8 -4 5 14 -2 15 0 26 6 25 5 -1
12 4 14 11 3 6 -3 12 -12 12 -9 0 -15 6 -14 13 1 6 1 19 0 27 -3 29 -21 -13
-22 -50 l-1 -35 -10 28 c-5 15 -14 27 -19 27 -6 0 -7 5 -4 10 4 6 1 27 -5 46
-10 30 -10 38 1 45 10 6 11 9 2 9 -10 0 -13 29 -13 113 1 97 2 110 14 94 13
-17 14 -16 12 7 0 13 -5 24 -11 23 -5 -1 -12 14 -16 33 -3 19 -7 -36 -8 -122
0 -87 -5 -158 -10 -158 -14 0 -20 58 -28 265 -8 183 -8 186 -13 85 -3 -58 -3
-138 0 -178 3 -44 1 -72 -5 -72 -5 0 -4 -4 4 -9 9 -6 11 -18 6 -40 -4 -21 -3
-31 5 -31 7 0 10 -6 7 -14 -3 -7 1 -33 9 -56 24 -70 10 -81 -19 -16 -15 32
-27 64 -27 70 0 7 -22 34 -48 62 -50 51 -106 75 -312 135 -41 11 -81 26 -87
31 -7 6 -13 8 -13 5 0 -3 -42 9 -94 27 -82 28 -103 40 -165 96 -66 61 -74 72
-117 175 -42 100 -66 137 -95 147 -7 2 -6 18 2 50 10 35 20 50 43 62 17 9 22
14 11 10 -11 -4 -65 -23 -121 -42 -64 -22 -110 -33 -125 -29 -37 10 -193 102
-309 183 -163 114 -169 120 -190 194 -10 36 -19 59 -19 51z m1248 -966 c28
-14 36 -25 51 -77 7 -22 5 -28 -7 -28 -15 0 -63 47 -63 62 0 4 -11 19 -25 33
-25 24 -25 25 -5 25 12 0 34 -7 49 -15z m603 -107 c-9 -9 -15 -9 -24 0 -9 9
-7 12 12 12 19 0 21 -3 12 -12z m18 -22 c0 -3 -4 -8 -10 -11 -5 -3 -10 -1 -10
4 0 6 5 11 10 11 6 0 10 -2 10 -4z m0 -46 c0 -5 -5 -10 -11 -10 -5 0 -8 -4 -4
-9 3 -5 1 -12 -4 -15 -5 -3 -11 3 -14 14 -4 17 4 27 26 29 4 1 7 -3 7 -9z
m-1066 -42 c-3 -5 -17 -7 -31 -3 -16 4 -22 2 -18 -4 3 -6 -13 -16 -39 -23 -25
-7 -41 -15 -36 -18 5 -3 -11 -10 -35 -16 -25 -6 -45 -7 -45 -2 0 4 6 8 14 8 8
0 16 3 18 8 6 13 129 61 144 55 7 -3 14 0 14 7 0 6 5 8 10 5 6 -4 8 -11 4 -17z
m143 16 c-3 -3 -12 -4 -19 -1 -8 3 -5 6 6 6 11 1 17 -2 13 -5z m-369 -90 c14
-10 22 -26 22 -44 0 -27 -2 -28 -34 -23 -25 4 -40 1 -52 -11 -9 -10 -22 -15
-30 -12 -7 3 -15 0 -17 -7 -2 -7 -12 -2 -25 13 -22 26 -29 45 -13 35 6 -3 25
4 43 15 41 25 36 25 -27 2 -53 -19 -75 -19 -75 2 0 7 13 13 33 13 17 0 55 7
82 15 66 20 67 20 93 2z m1167 -43 c-3 -5 -1 -12 5 -16 6 -4 4 -18 -7 -38 -15
-27 -18 -29 -21 -12 -2 10 1 21 7 23 6 2 8 8 5 13 -6 11 2 39 11 39 4 0 4 -4
0 -9z m113 -49 c19 -21 26 -42 14 -42 -4 0 -16 14 -25 30 -20 34 -16 39 11 12z
m-62 -34 c-5 8 2 12 24 12 18 0 29 -4 25 -10 -3 -5 3 -17 15 -27 26 -22 26
-37 0 -23 -22 12 -27 1 -8 -18 7 -7 8 -12 3 -12 -6 0 -17 13 -26 28 -11 20
-23 27 -42 27 -31 -2 -50 -15 -22 -15 15 0 16 -3 7 -12 -9 -9 -15 -9 -23 -1
-9 9 -9 20 1 43 12 30 13 30 33 13 11 -10 17 -12 13 -5z m-1089 -48 c10 0 24
-9 31 -20 7 -11 18 -17 27 -14 8 4 15 1 15 -5 0 -6 -6 -11 -12 -12 -10 0 -10
-2 0 -6 6 -2 12 -11 12 -20 0 -13 -2 -13 -15 1 -8 8 -15 20 -15 27 0 8 -4 8
-15 -1 -13 -11 -21 -8 -50 21 -38 38 -45 55 -16 39 11 -5 28 -10 38 -10z m136
-73 c4 3 7 1 7 -6 0 -8 -8 -11 -20 -8 -11 3 -20 0 -20 -6 0 -6 -3 -8 -6 -4 -4
3 -4 14 0 23 5 12 9 14 20 5 7 -6 16 -8 19 -4z m953 -66 c1 -9 4 -24 9 -33 4
-10 3 -18 -2 -18 -5 0 -14 15 -20 33 -7 25 -7 34 1 34 7 0 12 -7 12 -16z m44
-111 c-8 -5 -19 -10 -25 -10 -5 0 -3 5 5 10 8 5 20 10 25 10 6 0 3 -5 -5 -10z
m110 -10 c0 -5 -9 -10 -20 -10 -11 0 -20 5 -20 10 0 6 9 10 20 10 11 0 20 -4
20 -10z m-80 -155 c0 -8 -2 -15 -4 -15 -2 0 -6 7 -10 15 -3 8 -1 15 4 15 6 0
10 -7 10 -15z m-890 -45 c0 -13 -1 -13 -10 0 -5 8 -10 22 -10 30 0 13 1 13 10
0 5 -8 10 -22 10 -30z"/>
<path d="M5050 2035 c-6 -8 -10 -19 -8 -24 1 -6 8 1 15 14 13 28 11 31 -7 10z"/>
<path d="M5240 2030 c0 -11 4 -20 9 -20 6 0 9 9 8 20 -1 11 -5 20 -9 20 -4 0
-8 -9 -8 -20z"/>
<path d="M4185 2009 c-55 -41 -66 -54 -30 -36 36 19 94 66 80 66 -5 0 -28 -14
-50 -30z"/>
<path d="M4555 2017 c-8 -13 -17 -52 -20 -88 l-4 -64 10 65 c5 36 17 75 25 88
8 12 12 22 9 22 -2 0 -11 -10 -20 -23z"/>
<path d="M5119 2039 c-6 -34 -9 -43 -18 -52 -16 -16 -13 -31 3 -18 15 13 30
60 21 69 -3 3 -5 3 -6 1z"/>
<path d="M2245 1990 c-4 -17 -5 -34 -2 -36 3 -3 8 9 12 26 4 17 5 34 2 36 -3
3 -8 -9 -12 -26z"/>
<path d="M4625 2010 c-16 -7 -17 -9 -3 -9 9 -1 20 4 23 9 7 11 7 11 -20 0z"/>
<path d="M5219 1983 c-13 -17 -13 -17 6 -3 11 8 22 16 24 17 2 2 0 3 -6 3 -6
0 -17 -8 -24 -17z"/>
<path d="M4578 1983 c7 -3 16 -2 19 1 4 3 -2 6 -13 5 -11 0 -14 -3 -6 -6z"/>
<path d="M5165 1979 c-4 -6 -5 -12 -2 -15 2 -3 7 2 10 11 7 17 1 20 -8 4z"/>
<path d="M4100 1950 c-9 -6 -10 -10 -3 -10 6 0 15 5 18 10 8 12 4 12 -15 0z"/>
<path d="M5070 1923 c0 -7 -4 -13 -10 -13 -5 0 -10 -11 -10 -25 0 -14 -3 -25
-8 -25 -4 0 -13 -15 -20 -32 -7 -18 -17 -41 -23 -50 -7 -13 -5 -16 6 -12 8 3
17 16 21 27 4 12 10 24 14 27 4 3 18 30 32 61 19 41 22 56 12 56 -8 0 -14 -6
-14 -14z"/>
<path d="M2300 1909 c0 -5 5 -7 10 -4 6 3 10 8 10 11 0 2 -4 4 -10 4 -5 0 -10
-5 -10 -11z"/>
<path d="M4025 1910 c-3 -6 1 -7 9 -4 18 7 21 14 7 14 -6 0 -13 -4 -16 -10z"/>
<path d="M2260 1880 c0 -5 5 -10 10 -10 6 0 10 5 10 10 0 6 -4 10 -10 10 -5 0
-10 -4 -10 -10z"/>
<path d="M3961 1876 c-13 -7 -20 -15 -15 -18 5 -3 18 3 28 13 23 22 20 23 -13
5z"/>
<path d="M4473 1850 c0 -25 2 -35 4 -22 2 12 2 32 0 45 -2 12 -4 2 -4 -23z"/>
<path d="M4911 1863 c-1 -6 -4 -20 -7 -30 -5 -17 -5 -17 6 0 6 10 9 23 6 30
-3 9 -5 9 -5 0z"/>
<path d="M4521 1844 c0 -11 3 -14 6 -6 3 7 2 16 -1 19 -3 4 -6 -2 -5 -13z"/>
<path d="M2816 1800 c4 -19 11 -44 15 -55 6 -14 7 -9 3 15 -4 19 -11 44 -15
55 -6 14 -7 9 -3 -15z"/>
<path d="M4895 1749 c-1 -69 11 -80 14 -13 0 26 3 50 6 54 3 4 -1 10 -8 13 -9
3 -12 -12 -12 -54z"/>
<path d="M1592 1760 c0 -14 2 -19 5 -12 2 6 2 18 0 25 -3 6 -5 1 -5 -13z"/>
<path d="M2450 1765 c0 -8 4 -15 10 -15 5 0 7 7 4 15 -4 8 -8 15 -10 15 -2 0
-4 -7 -4 -15z"/>
<path d="M4513 1730 c0 -25 2 -35 4 -22 2 12 2 32 0 45 -2 12 -4 2 -4 -23z"/>
<path d="M5176 1753 c-6 -14 -5 -15 5 -6 7 7 10 15 7 18 -3 3 -9 -2 -12 -12z"/>
<path d="M2432 1710 c0 -14 2 -19 5 -12 2 6 2 18 0 25 -3 6 -5 1 -5 -13z"/>
<path d="M3610 1720 c-8 -5 -10 -10 -5 -10 6 0 17 5 25 10 8 5 11 10 5 10 -5
0 -17 -5 -25 -10z"/>
<path d="M4890 1665 c0 -8 2 -15 4 -15 2 0 6 7 10 15 3 8 1 15 -4 15 -6 0 -10
-7 -10 -15z"/>
<path d="M4927 1674 c-9 -9 4 -35 14 -28 5 3 9 12 9 20 0 14 -12 19 -23 8z"/>
<path d="M4960 1669 c0 -5 5 -7 10 -4 6 3 10 8 10 11 0 2 -4 4 -10 4 -5 0 -10
-5 -10 -11z"/>
<path d="M2458 1663 c6 -2 18 -2 25 0 6 3 1 5 -13 5 -14 0 -19 -2 -12 -5z"/>
<path d="M4707 1646 c-10 -8 -14 -17 -9 -20 6 -3 13 1 16 10 3 8 11 12 17 8 8
-4 9 -3 5 4 -9 14 -7 15 -29 -2z"/>
<path d="M2366 1534 c-32 -63 -56 -117 -54 -120 3 -2 13 10 22 28 9 18 27 51
39 73 25 44 58 127 54 131 -2 2 -29 -48 -61 -112z"/>
<path d="M2475 1632 c-6 -4 -11 -36 -12 -72 -2 -55 -1 -60 7 -35 6 17 11 45
12 63 1 29 18 48 18 21 0 -15 53 -150 57 -145 7 6 -52 169 -62 173 -5 1 -15
-1 -20 -5z"/>
<path d="M4886 1618 c-3 -13 -7 -51 -9 -85 -2 -47 0 -63 10 -63 8 0 13 14 14
38 0 20 2 58 3 85 2 48 -10 64 -18 25z"/>
<path d="M4501 1584 c0 -11 3 -14 6 -6 3 7 2 16 -1 19 -3 4 -6 -2 -5 -13z"/>
<path d="M4502 1540 c0 -14 2 -19 5 -12 2 6 2 18 0 25 -3 6 -5 1 -5 -13z"/>
<path d="M3891 1514 c0 -11 3 -14 6 -6 3 7 2 16 -1 19 -3 4 -6 -2 -5 -13z"/>
<path d="M4974 1478 l-19 -23 23 19 c12 11 22 21 22 23 0 8 -8 2 -26 -19z"/>
<path d="M2870 1480 c0 -5 5 -10 10 -10 6 0 10 5 10 10 0 6 -4 10 -10 10 -5 0
-10 -4 -10 -10z"/>
<path d="M2490 1464 c0 -5 11 -26 26 -47 30 -45 53 -107 46 -126 -3 -10 0 -12
14 -7 15 6 16 5 7 -5 -10 -10 -9 -16 4 -31 9 -10 11 -18 5 -18 -8 0 -9 -8 -4
-22 11 -31 7 -71 -7 -76 -6 -2 -11 -8 -11 -13 0 -6 4 -7 10 -4 6 4 7 -2 1 -17
-14 -39 -23 -105 -12 -88 9 12 11 11 11 -7 0 -28 -20 -30 -27 -3 -8 30 -26 24
-20 -6 4 -21 1 -25 -13 -21 -13 3 -17 -2 -15 -22 3 -40 4 -43 15 -36 6 4 9 1
8 -7 -2 -7 2 -12 9 -11 7 2 10 -3 7 -11 -3 -8 -1 -17 5 -20 13 -9 70 199 74
273 1 20 6 41 10 48 7 12 -11 94 -45 201 -21 65 -35 83 -18 21 16 -56 12 -55
-35 5 -25 32 -45 54 -45 50z"/>
<path d="M4885 1408 c5 -51 15 -79 15 -41 0 11 11 30 25 43 29 27 25 42 -5 15
-20 -18 -20 -17 -20 8 0 15 -5 27 -10 27 -6 0 -8 -20 -5 -52z"/>
<path d="M2880 1441 c0 -24 33 -181 38 -177 2 3 -4 44 -13 93 -17 83 -25 112
-25 84z"/>
<path d="M4430 1421 c0 -6 4 -13 10 -16 6 -3 7 1 4 9 -7 18 -14 21 -14 7z"/>
<path d="M2191 1410 c1 -22 27 -88 28 -69 1 9 -6 32 -14 50 -8 19 -14 27 -14
19z"/>
<path d="M2241 1343 c7 -10 15 -20 16 -22 2 -2 3 5 3 17 0 14 -6 22 -16 22
-14 0 -15 -3 -3 -17z"/>
<path d="M2271 1314 c0 -11 3 -14 6 -6 3 7 2 16 -1 19 -3 4 -6 -2 -5 -13z"/>
<path d="M4902 1300 c0 -19 2 -27 5 -17 2 9 2 25 0 35 -3 9 -5 1 -5 -18z"/>
<path d="M2223 1300 c4 -14 7 -29 7 -33 0 -5 4 -5 10 -2 6 3 7 -1 4 -10 -4 -8
3 -46 14 -83 55 -183 151 -588 152 -640 0 -26 -78 -167 -87 -158 -4 3 -6 61
-5 128 0 68 -3 157 -7 198 l-8 75 -2 -105 c-4 -247 -69 -501 -164 -632 l-27
-38 75 0 c69 0 75 2 80 23 7 33 24 132 35 212 14 101 16 107 56 166 48 70 124
230 163 342 l31 87 -33 43 c-17 23 -43 59 -57 80 -23 34 -36 42 -67 38 -18 -3
-16 18 2 25 20 8 19 24 -1 24 -8 0 -12 5 -9 11 4 5 4 22 0 36 -4 19 -11 24
-25 20 -22 -6 -27 8 -7 17 6 4 2 4 -10 2 -16 -3 -23 1 -23 11 0 10 6 12 20 8
17 -5 16 2 -15 67 -22 47 -39 73 -49 72 -9 -1 -16 5 -16 14 0 8 -3 12 -7 9 -3
-4 -13 -1 -21 6 -13 10 -15 8 -9 -13z m64 -132 c-3 -8 -6 -5 -6 6 -1 11 2 17
5 13 3 -3 4 -12 1 -19z m33 -68 c0 -5 -5 -10 -11 -10 -5 0 -7 5 -4 10 3 6 8
10 11 10 2 0 4 -4 4 -10z m55 -200 c3 -5 -3 -10 -15 -10 -12 0 -18 5 -15 10 3
6 10 10 15 10 5 0 12 -4 15 -10z m118 -37 c-7 -2 -19 -2 -25 0 -7 3 -2 5 12 5
14 0 19 -2 13 -5z m-39 -38 c-4 -8 -11 -12 -16 -9 -6 4 -5 10 3 15 19 12 19
11 13 -6z m-30 -49 c-3 -9 -10 -13 -15 -10 -5 3 -3 11 4 19 15 16 19 13 11 -9z"/>
<path d="M4493 1270 c0 -30 2 -43 4 -27 2 15 2 39 0 55 -2 15 -4 2 -4 -28z"/>
<path d="M4631 1264 c0 -11 3 -14 6 -6 3 7 2 16 -1 19 -3 4 -6 -2 -5 -13z"/>
<path d="M4911 1234 c0 -11 3 -14 6 -6 3 7 2 16 -1 19 -3 4 -6 -2 -5 -13z"/>
<path d="M1685 1217 l-30 -11 40 -12 40 -12 -34 -8 c-28 -6 -30 -8 -16 -17 13
-7 22 -4 39 13 15 16 17 24 8 27 -6 3 -10 9 -7 13 3 5 13 6 22 3 11 -4 14 -3
9 5 -9 14 -31 14 -71 -1z"/>
<path d="M2918 1200 c2 -16 6 -30 8 -30 2 0 4 14 4 30 0 17 -4 30 -8 30 -5 0
-7 -13 -4 -30z"/>
<path d="M3360 1200 c0 -5 5 -10 10 -10 6 0 10 5 10 10 0 6 -4 10 -10 10 -5 0
-10 -4 -10 -10z"/>
<path d="M1610 1190 c-12 -8 -11 -10 7 -10 12 0 25 5 28 10 8 13 -15 13 -35 0z"/>
<path d="M4678 1155 c-3 -14 -1 -28 3 -31 5 -3 9 -2 10 3 0 4 2 18 3 31 4 30
-11 28 -16 -3z"/>
<path d="M4921 1164 c0 -11 3 -14 6 -6 3 7 2 16 -1 19 -3 4 -6 -2 -5 -13z"/>
<path d="M1737 1155 c-4 -8 -1 -17 5 -21 7 -4 8 -3 4 4 -4 7 -2 12 3 12 6 0
11 5 11 10 0 15 -17 12 -23 -5z"/>
<path d="M3350 1156 c0 -8 4 -17 9 -20 5 -4 7 3 4 14 -6 23 -13 26 -13 6z"/>
<path d="M3266 1137 c3 -10 9 -15 12 -12 3 3 0 11 -7 18 -10 9 -11 8 -5 -6z"/>
<path d="M2930 1113 c0 -16 7 -83 15 -151 8 -68 15 -147 16 -177 1 -30 6 -55
12 -55 5 0 7 12 4 26 -5 26 -4 26 39 20 l44 -6 0 38 c0 52 -27 233 -39 265 -6
15 -27 35 -51 47 l-40 20 0 -27z"/>
<path d="M4931 1124 c0 -11 3 -14 6 -6 3 7 2 16 -1 19 -3 4 -6 -2 -5 -13z"/>
<path d="M4542 1110 c0 -14 2 -19 5 -12 2 6 2 18 0 25 -3 6 -5 1 -5 -13z"/>
<path d="M3355 1111 c-3 -5 -1 -12 4 -15 5 -3 11 1 15 9 6 16 -9 21 -19 6z"/>
<path d="M4610 1110 c0 -14 28 -19 38 -7 8 9 4 12 -14 13 -13 1 -24 -2 -24 -6z"/>
<path d="M4687 1103 c-11 -18 -11 -77 -1 -80 14 -5 26 35 13 43 -6 3 -7 14 -4
25 6 19 1 26 -8 12z"/>
<path d="M3330 1090 c0 -5 5 -10 11 -10 5 0 7 5 4 10 -3 6 -8 10 -11 10 -2 0
-4 -4 -4 -10z"/>
<path d="M4941 1084 c0 -11 3 -14 6 -6 3 7 2 16 -1 19 -3 4 -6 -2 -5 -13z"/>
<path d="M2642 1019 c-7 -35 -20 -97 -28 -138 -8 -40 -13 -76 -10 -79 3 -3 6
4 6 16 0 23 30 45 46 34 5 -4 15 -18 22 -32 11 -21 11 -15 6 45 -3 39 -11 103
-17 144 l-12 75 -13 -65z"/>
<path d="M2470 1055 c-11 -13 -10 -14 4 -9 9 3 16 10 16 15 0 13 -6 11 -20 -6z"/>
<path d="M1762 1040 c0 -14 2 -19 5 -12 2 6 2 18 0 25 -3 6 -5 1 -5 -13z"/>
<path d="M4951 1050 c0 -8 4 -22 9 -30 12 -18 12 -2 0 25 -6 13 -9 15 -9 5z"/>
<path d="M4678 980 c2 -16 8 -30 12 -30 4 0 10 14 12 30 4 23 1 30 -12 30 -13
0 -16 -7 -12 -30z"/>
<path d="M1761 873 c-1 -71 -4 -142 -7 -159 -3 -18 -1 -35 4 -38 6 -4 11 2 10
11 0 10 3 84 7 166 5 97 5 147 -2 147 -6 0 -11 -49 -12 -127z"/>
<path d="M2893 910 c0 -30 2 -43 4 -27 2 15 2 39 0 55 -2 15 -4 2 -4 -28z"/>
<path d="M1550 931 c0 -10 -7 -24 -15 -31 -8 -7 -15 -17 -15 -22 0 -5 -9 -28
-20 -50 -11 -23 -20 -49 -20 -58 0 -9 -4 -20 -9 -25 -14 -16 -21 -71 -9 -83 7
-7 7 -20 -1 -44 -8 -23 -8 -34 -1 -36 6 -2 3 -10 -7 -18 -17 -13 -17 -14 2 -8
19 7 19 6 3 -11 -16 -17 -16 -19 0 -32 16 -12 16 -13 0 -7 -15 5 -18 0 -18
-25 0 -32 8 -39 27 -20 8 8 13 8 18 0 3 -6 -2 -14 -12 -18 -19 -7 -33 -22 -33
-36 0 -5 5 -5 10 -2 6 3 10 -3 10 -14 0 -23 -16 -29 -23 -8 -2 6 -4 0 -4 -15
0 -15 3 -25 8 -23 10 7 4 -42 -11 -79 -8 -22 -8 -31 1 -36 8 -6 8 -9 -1 -12
-8 -2 -14 -31 -16 -83 -3 -77 -3 -78 6 -24 5 31 20 82 34 114 15 31 26 65 26
74 0 9 4 21 8 27 11 12 37 87 52 148 6 27 18 65 27 85 9 20 18 45 20 55 2 11
10 32 17 48 16 31 21 208 6 208 -6 0 -6 10 0 25 9 23 6 29 -12 26 -5 0 -8 6
-8 14 0 8 -9 15 -20 15 -13 0 -20 -7 -20 -19z m-11 -249 c-7 -3 -20 -12 -27
-21 -8 -9 -12 -11 -9 -6 2 6 7 18 10 27 4 12 12 15 24 11 14 -5 14 -8 2 -11z"/>
<path d="M4670 920 c0 -6 7 -13 16 -17 13 -5 13 -7 2 -14 -10 -7 -9 -9 5 -9
21 0 22 16 3 36 -17 17 -26 18 -26 4z"/>
<path d="M4877 874 c-2 -14 1 -47 8 -72 l13 -47 1 43 c1 23 -3 42 -7 42 -5 0
-7 14 -4 30 5 37 -4 40 -11 4z"/>
<path d="M4689 834 c-1 -10 -3 -33 -5 -51 -1 -17 4 -40 11 -50 12 -16 14 -10
12 44 -2 58 -15 99 -18 57z"/>
<path d="M2587 774 c-4 -4 -7 -13 -7 -21 0 -19 -66 -185 -100 -254 -16 -31
-41 -71 -57 -90 -15 -18 -22 -30 -15 -25 21 12 16 -112 -14 -331 l-7 -53 110
0 c77 0 113 4 120 13 21 26 66 246 72 352 4 61 7 111 6 112 -1 2 -66 -13 -93
-22 -18 -7 0 -37 32 -55 14 -7 26 -17 26 -22 0 -12 -91 53 -97 69 -2 6 9 43
25 81 26 62 29 79 26 153 -3 78 -12 108 -27 93z m-32 -234 c-3 -5 -12 -10 -18
-10 -7 0 -6 4 3 10 19 12 23 12 15 0z m5 -121 c0 -5 -4 -9 -8 -9 -5 0 -9 7 -9
15 0 8 4 12 9 9 4 -3 8 -9 8 -15z"/>
<path d="M2680 771 c0 -6 4 -13 10 -16 6 -3 7 1 4 9 -7 18 -14 21 -14 7z"/>
<path d="M1731 744 c0 -11 3 -14 6 -6 3 7 2 16 -1 19 -3 4 -6 -2 -5 -13z"/>
<path d="M3050 711 c0 -11 -9 -22 -19 -26 -10 -3 -24 -19 -31 -35 -12 -30 -6
-55 12 -44 6 4 6 -1 -1 -14 -8 -15 -8 -23 0 -27 12 -8 11 -9 27 28 14 32 28
137 18 137 -3 0 -6 -9 -6 -19z"/>
<path d="M2967 697 c-3 -8 -1 -20 4 -28 6 -10 9 -7 9 14 0 29 -5 35 -13 14z"/>
<path d="M2691 654 c0 -11 3 -14 6 -6 3 7 2 16 -1 19 -3 4 -6 -2 -5 -13z"/>
<path d="M4748 645 c2 -14 6 -25 8 -25 2 0 4 11 4 25 0 14 -4 25 -9 25 -4 0
-6 -11 -3 -25z"/>
<path d="M1720 636 c0 -14 -4 -28 -10 -31 -6 -3 -10 4 -10 16 0 33 -14 13 -16
-22 -1 -22 1 -27 10 -19 7 5 23 11 37 13 19 3 25 11 27 35 3 27 0 32 -17 32
-16 0 -21 -6 -21 -24z m30 4 c0 -5 -4 -10 -10 -10 -5 0 -10 5 -10 10 0 6 5 10
10 10 6 0 10 -4 10 -10z"/>
<path d="M2972 620 c0 -19 2 -27 5 -17 2 9 2 25 0 35 -3 9 -5 1 -5 -18z"/>
<path d="M2157 511 c-33 -128 -119 -316 -190 -420 -32 -46 -57 -85 -57 -87 0
-3 17 -4 37 -2 33 3 42 10 80 63 48 68 81 148 116 285 24 92 51 249 44 257 -2
2 -16 -42 -30 -96z"/>
<path d="M2692 590 c0 -14 2 -19 5 -12 2 6 2 18 0 25 -3 6 -5 1 -5 -13z"/>
<path d="M4561 576 c-14 -16 -11 -53 3 -48 5 2 12 -1 16 -8 4 -6 6 5 5 25 -3
43 -8 50 -24 31z"/>
<path d="M1700 570 c0 -5 5 -10 11 -10 5 0 7 5 4 10 -3 6 -8 10 -11 10 -2 0
-4 -4 -4 -10z"/>
<path d="M1741 563 c-1 -12 -9 -29 -18 -39 -13 -13 -14 -19 -5 -22 6 -2 12 -8
12 -14 0 -5 -9 -6 -20 -3 -18 6 -20 3 -15 -19 3 -14 7 -37 10 -50 3 -14 0 -26
-7 -28 -8 -3 -8 -9 1 -24 10 -15 11 -15 7 -1 -3 9 -2 17 3 17 11 0 45 174 38
192 -3 7 -6 3 -6 -9z"/>
<path d="M2886 517 c-14 -142 -84 -376 -141 -473 l-26 -44 64 0 c41 0 69 5 75
13 6 7 18 53 27 103 19 108 33 464 18 464 -6 0 -13 -28 -17 -63z"/>
<path d="M4670 560 c0 -5 5 -10 10 -10 6 0 10 5 10 10 0 6 -4 10 -10 10 -5 0
-10 -4 -10 -10z"/>
<path d="M1673 553 c-7 -3 -13 -10 -13 -15 0 -6 3 -8 7 -5 3 4 11 3 17 -2 7
-6 16 -4 23 4 9 10 8 14 -5 17 -9 3 -23 3 -29 1z"/>
<path d="M2971 544 c0 -11 3 -14 6 -6 3 7 2 16 -1 19 -3 4 -6 -2 -5 -13z"/>
<path d="M4765 527 c-22 -17 -4 -67 25 -67 11 0 20 5 20 10 0 6 -7 10 -15 10
-8 0 -15 5 -15 11 0 6 8 8 18 5 15 -5 15 -5 -1 8 -18 14 -18 14 0 18 16 3 16
4 1 10 -9 4 -24 1 -33 -5z"/>
<path d="M4670 520 c0 -6 6 -10 13 -10 8 0 14 -6 14 -14 0 -8 -8 -12 -21 -9
-17 4 -18 3 -6 -6 8 -5 11 -13 7 -17 -4 -4 -13 -2 -19 4 -14 14 -38 16 -38 2
0 -5 7 -7 15 -4 14 6 20 -7 16 -30 -2 -11 19 -26 37 -26 9 0 10 5 3 18 -17 33
19 53 39 22 5 -8 10 -13 11 -10 8 43 8 61 1 56 -6 -3 -9 2 -8 11 1 12 -8 18
-31 20 -18 1 -33 -2 -33 -7z"/>
<path d="M2971 504 c0 -11 3 -14 6 -6 3 7 2 16 -1 19 -3 4 -6 -2 -5 -13z"/>
<path d="M1342 422 c-1 -26 3 -54 9 -62 6 -10 7 3 4 39 -3 38 -1 57 7 63 10 6
9 8 -4 8 -13 0 -16 -10 -16 -48z"/>
<path d="M1650 460 c0 -5 4 -10 9 -10 4 0 8 -8 8 -17 0 -34 3 -44 12 -39 16
10 9 56 -10 67 -13 6 -19 6 -19 -1z"/>
<path d="M4760 435 c0 -9 9 -15 21 -15 18 0 19 2 9 15 -7 8 -16 15 -21 15 -5
0 -9 -7 -9 -15z"/>
<path d="M1617 393 c-4 -3 -7 -11 -7 -17 0 -6 5 -5 12 2 6 6 9 14 7 17 -3 3
-9 2 -12 -2z"/>
<path d="M1644 363 c-4 -10 -6 -21 -6 -25 4 -15 -17 -8 -27 10 -14 23 -14 6 0
-19 5 -11 15 -17 21 -13 7 5 9 -2 6 -20 -4 -18 -1 -29 8 -33 8 -3 14 -11 14
-19 0 -9 -6 -11 -17 -7 -16 6 -17 5 -3 -12 14 -17 13 -18 -2 -12 -12 4 -18 2
-18 -8 0 -28 31 -15 46 20 16 39 19 69 5 46 -11 -17 -19 -3 -16 29 2 14 4 25
5 25 1 0 3 12 5 28 4 30 -9 36 -21 10z"/>
<path d="M4650 310 c0 -5 7 -10 16 -10 8 0 12 5 9 10 -3 6 -10 10 -16 10 -5 0
-9 -4 -9 -10z"/>
<path d="M4660 270 c-13 -11 -20 -23 -17 -26 3 -4 13 1 22 10 9 9 21 16 26 16
5 0 9 5 9 10 0 16 -15 12 -40 -10z"/>
<path d="M4710 254 c0 -8 5 -12 10 -9 6 4 8 11 5 16 -9 14 -15 11 -15 -7z"/>
<path d="M1590 249 c0 -5 5 -7 10 -4 6 3 10 8 10 11 0 2 -4 4 -10 4 -5 0 -10
-5 -10 -11z"/>
<path d="M4685 250 c3 -5 8 -10 11 -10 2 0 4 5 4 10 0 6 -5 10 -11 10 -5 0 -7
-4 -4 -10z"/>
<path d="M4736 245 c-3 -9 0 -15 8 -15 7 0 13 7 13 15 0 8 -4 15 -8 15 -4 0
-9 -7 -13 -15z"/>
<path d="M4800 238 c0 -19 2 -20 10 -8 13 19 13 30 0 30 -5 0 -10 -10 -10 -22z"/>
<path d="M1350 234 c0 -8 5 -12 10 -9 6 4 8 11 5 16 -9 14 -15 11 -15 -7z"/>
<path d="M4840 240 c0 -5 5 -10 10 -10 6 0 10 5 10 10 0 6 -4 10 -10 10 -5 0
-10 -4 -10 -10z"/>
<path d="M1586 217 c3 -10 9 -15 12 -12 3 3 0 11 -7 18 -10 9 -11 8 -5 -6z"/>
<path d="M4680 211 c-14 -15 -14 -18 0 -34 12 -13 23 -14 46 -8 24 8 25 9 7
10 -25 1 -31 16 -10 24 9 4 9 6 -1 6 -7 1 -10 6 -7 11 10 17 -19 10 -35 -9z"/>
<path d="M4773 205 c-8 -9 -9 -16 -3 -20 6 -3 10 -4 10 0 0 3 10 1 23 -5 19
-9 20 -9 6 2 -9 7 -18 18 -20 25 -3 8 -8 7 -16 -2z"/>
<path d="M4833 182 c3 -29 1 -33 -16 -28 -10 2 -16 2 -13 -1 3 -4 1 -12 -6
-20 -8 -11 -8 -17 2 -26 9 -9 11 -9 6 0 -3 7 2 14 13 18 26 8 34 36 21 66 -9
22 -10 21 -7 -9z"/>
<path d="M1560 180 c-9 -6 -10 -10 -3 -10 6 0 15 5 18 10 8 12 4 12 -15 0z"/>
<path d="M1604 137 l1 -28 18 22 c10 12 15 24 12 28 -3 3 -10 -1 -14 -8 -7
-11 -9 -11 -14 0 -2 8 -4 1 -3 -14z"/>
<path d="M4660 140 c0 -5 5 -10 10 -10 6 0 10 5 10 10 0 6 -4 10 -10 10 -5 0
-10 -4 -10 -10z"/>
<path d="M4666 105 c-2 -7 11 -11 33 -12 20 0 30 2 23 4 -6 3 -10 9 -7 14 4 5
-5 8 -19 7 -14 -1 -27 -7 -30 -13z"/>
<path d="M1370 62 l5 -47 3 39 c2 21 0 42 -5 47 -4 4 -6 -13 -3 -39z"/>
<path d="M4820 85 c0 -8 5 -15 10 -15 6 0 10 7 10 15 0 8 -4 15 -10 15 -5 0
-10 -7 -10 -15z"/>
<path d="M1530 80 c0 -5 5 -10 10 -10 6 0 10 5 10 10 0 6 -4 10 -10 10 -5 0
-10 -4 -10 -10z"/>
<path d="M4676 74 c-8 -21 15 -74 32 -74 17 0 43 26 35 34 -4 3 -2 6 3 6 5 0
10 11 10 24 2 31 -24 24 -37 -10 -13 -35 -32 -30 -24 6 7 32 -8 42 -19 14z"/>
<path d="M1570 66 c0 -9 -4 -16 -9 -16 -5 0 -11 -9 -14 -20 -7 -26 -5 -25 21
9 13 18 18 32 12 36 -6 3 -10 -1 -10 -9z"/>
</g>
</svg>
