<svg t="1632973022779" class="icon" viewBox="0 0 1024 1024" xmlns="http://www.w3.org/2000/svg" p-id="1036" xmlns:xlink="http://www.w3.org/1999/xlink" width="200" height="200"><defs><style/></defs><path d="M869.485714 627.657143C851.2 568.914286 830.171428 519.542857 797.828571 438.742857 802.857143 226.514286 714.628571 54.857143 511.428571 54.857143c-205.485714.0-291.771428 175.085714-286.285714 383.885714-32.457143 80.914286-53.371429 129.942857-71.657143 188.914286C114.628571 752.8 127.2 804.571429 136.8 805.714286c20.571429 2.514286 80.114286-94.171429 80.114286-94.171429.0 56 28.8 129.028571 91.2 181.714286-30.171429 9.257143-97.942857 34.171429-81.828572 61.485714 13.028571 22.057143 224.228571 14.057143 285.142857 7.2 60.914286 6.857143 272.114286 14.857143 285.142858-7.2 16.114286-27.2-51.771429-52.228571-81.828572-61.485714 62.4-52.8 91.2-125.828571 91.2-181.714286.0.0 59.542857 96.685714 80.114286 94.171429 9.714286-1.257143 22.285714-53.028571-16.571429-178.057143z" p-id="1037"/></svg>